<svg id="Layer_1" data-name="Layer 1" xmlns="http://www.w3.org/2000/svg" viewBox="0 0 400 400"><defs><style>.cls-1{fill:#292929;}.cls-2{fill:#b7b7b7;}.cls-3{fill:#696969;}.cls-4{fill:#dfdfdf;}.cls-5{fill:#898989;}</style></defs><title>bun-greyArtboard 13</title><path d="M163.87,40.87a40.61,40.61,0,0,1,8.41-2.1c3.36-.41,4.69-.07,13.66,0,2.2,0,1.23,0,6.3,0,8.3,0,9.28.09,12.61,0,5.44-.14,8.21-.23,10.51-1.05,3-1.06,3.08-1.92,7.35-4.2a59,59,0,0,1,10.51-4.21,61.08,61.08,0,0,1,12.61-3.15c6-.63,10.32.63,18.91,3.15a131.22,131.22,0,0,1,21,8.41c5.8,2.79,10.43,5.42,13.66,7.36A126,126,0,0,1,312,53.48c6.1,4.67,9.16,7,11.55,10.51,3.81,5.57,2.42,7.78,6.31,13.66,3.22,4.88,5.71,5.68,9.46,9.45,5.49,5.55,5.51,9.25,11.55,23.12,4,9.11,7.67,16,12.61,25.22,4.6,8.58,7.57,13.46,10.51,22.06a65.58,65.58,0,0,1,3.15,12.61c.93,6.87.18,10.51,0,16.81-.39,14,2.86,13.17,2.1,23.12-1.07,14.13-7.62,15.73-6.3,27.32.32,2.79,1.13,6.5,0,11.56a28.15,28.15,0,0,1-4.2,9.45c-5.85,9.22-3.3,11.49-9.46,24.17-1.83,3.76-1.59,2.61-15.76,25.22-4.72,7.52-4,6.42-5.26,8.4-6.83,10.59-8.77,12.16-18.91,26.27-8.65,12-9.07,13.43-12.61,15.76-2.48,1.64-6.91,3.55-15.76,7.36a51.74,51.74,0,0,1-8.4,3.15c-5.47,1.37-9.22,1-13.66,1.05-6.76.05-9.15.94-17.87,2.1A274,274,0,0,1,212.21,374c-10.47-.22-8.57-.92-31.53-2.11-10.63-.54-12.19-.45-17.86-1.05-10-1-11.28-2-26.27-4.2-13.48-2-14.32-1.54-18.91-3.15-6.69-2.36-8.66-4.67-17.86-10.51C83.59,342.67,82.07,345,73.51,338.23c-6.86-5.43-10.53-10.62-17.86-21A171.56,171.56,0,0,1,39.89,289.9a185.71,185.71,0,0,1-11.56-34.68C26,245.16,25,235.9,23.07,217.4,21,197.89,20,188,21,179.57c.7-6.2,1.14-4.88,7.36-30.47,5.77-23.73,5.51-25.31,8.4-30.47,3.54-6.31,5.24-6.28,22.07-23.12C76.29,78,75.39,77,83,71.34a118.13,118.13,0,0,1,29.42-15.76c11.49-4.23,12-2.38,30.47-8.4C149.81,44.91,156.92,43.13,163.87,40.87Z"/><g id="H4GZOV"><path class="cls-1" d="M172.57,368a31.66,31.66,0,0,0,10.41.62l3.07.06,4.2.12a20.8,20.8,0,0,0,8.28-.08,271.47,271.47,0,0,0,36.06-1.59,2.23,2.23,0,0,0,2.47-.25l2.07-.13,1-.08a85,85,0,0,0,16.64-.74,26.63,26.63,0,0,0,8.31-.29c5.78.47,11.31-.76,16.77-2.45,11.79-1.84,21.44-7.72,29.19-16.45,5.61-6.3,10.3-13.42,15.56-20,16.52-20.83,28.22-44.29,37.87-68.88,4.31-11.5,5.37-23.65,7.1-35.66A215.58,215.58,0,0,0,373,177,78.85,78.85,0,0,0,364,145.22c-.23-2.33-1.62-4.17-2.72-6.09-10.33-18-20.24-36.19-29.4-54.81a79.28,79.28,0,0,0-16.2-22.06C300.15,47.33,281,38.92,261,32.5c-13.39-4.3-26.64-2.92-39.08,4-3,1.64-5.55,3.47-.5,5.86-1.85,1.56-3.94,1.07-5.9.49a15.09,15.09,0,0,0-7.68-.33c-4.81,1.08-9.5.78-14.34.09a37.9,37.9,0,0,0-14.95.58c4.74,2.47,10.13-.37,14.81,2.14-13.33,0-26.83-.78-39.88,1.91C114.16,55.35,80.68,73.91,55,105.29a120.2,120.2,0,0,0-23.89,46.18c-2.05,3.89-2.54,8.21-3.17,12.44-4.1,27.59-1.71,54.93,2.92,82.24,4.06,23.94,12,46.48,26.46,65.92,26.29,35.19,64.25,48.82,105.89,54.92l.42.3.49-.15a15.78,15.78,0,0,0,6.37.64Z"/><path class="cls-2" d="M364.51,257.79c-9.65,24.59-21.35,48-37.87,68.88-5.26,6.62-9.95,13.74-15.56,20-7.75,8.73-17.4,14.61-29.19,16.45.61-2-2.33-2.17-2.25-4.05,2-.58,3.85-1.08,5.65-1.64,1.15-.36,2.64-.75,2-2.34-.43-1.12-1.77-.77-2.77-.53-3.86.92-7.68,2.54-11.56,2.7-17.93.7-35.82,2.49-53.73,3.05-19.82.63-39.72,1.13-59.44-2.78-23.15-4.58-45.5-11-65.66-23.82-4.78-3-9.17-6.75-14.59-8.78-3.79-1.42-1.17,1.51-1.68,2.29l0,0c-2.37-.77-6.38-1.46-4.6-4.53,2.54-4.37,0-6.62-2.2-8.89a94.4,94.4,0,0,1-13.73-17.33c-.58-1-1.1-2.63-2.55-1.93s-.27,2.07-.07,3.18c.73,3.87,5.37,5.51,5.48,9.71h0c-1.15-.06-1.75-.83-2.45-1.66-11.37-13.34-17.28-29.45-21.25-46-6.43-26.73-8.56-54.06-7.56-81.6a111,111,0,0,1,2.62-21.5c.45-1.85,1.18-3.67-.47-5.32A120.2,120.2,0,0,1,55,105.29c25.7-31.38,59.18-49.94,98.51-58.06,13-2.69,26.55-1.94,39.88-1.91,22,5.6,38.79,19.66,54.45,34.78,15.05,14.53,22.94,34,31.72,52.66,5.31,11.28,9.68,22.93,11.48,35.38-1.91,7.44.74,14.74.7,22.12,0,.23.85.46,1.3.7.88,15.22-2.11,29.77-7.59,43.9-3,7.83-5.56,15.9-10.58,22.81-2.89.06-3.73,1.69-3.3,4.3l.08-.08c-2.58-.25-3.52,1.68-4.68,3.41A83.84,83.84,0,0,1,240.53,291c-1.74,1.07-3.74,2-3.39,4.66A35.78,35.78,0,0,1,226,299.8c-1.49-2.19-2.12-1.17-2.53.68l-.28.29-.37-.15c-2.16-2.31-4.82-1.62-7.27-1-7.52,2-15,.56-22.47-.11a27.2,27.2,0,0,1-6.54-1.48c-1.89-.68-4.19-.75-5.5-2.91A68.42,68.42,0,0,0,209.15,298a65.77,65.77,0,0,0,27.14-8.15c-1.21-.59-1.51-.86-1.81-.86a4.21,4.21,0,0,0-1.49.3c-18.25,7.59-36.61,7.09-55,.7-11.24-3.9-20.48-11.39-30.41-17.53-12.34-7.62-23.39-17-31.07-29.77-.69-1.13-1.47-3.57-3.31-2.31-1.65,1.14.46,2.68.82,4.06.68,2.52,3.5,4.23,2.92,7.82-3.69-2.53-4.07-6.75-6.55-9.47-6.35-6.93-8-15.66-8.39-24.45-.53-13.27-.54-26.58,1.73-39.78.46-2.69,1.27-5.86-.94-8.45l.43-2.09c1.33-.32,2.16-.81.65-2,2.83-12.68,10-22.74,19.68-30.93,20.33-17.12,43.39-18.15,67.64-10.71,9.15,2.81,18.31,6.1,24.92,13.37,15.86,17.44,21.45,38.34,19.56,61.52-.88-.27-1.35-2.36-1.46-1.71-.69,4.12-4.31,8.21-.64,12.54a26.46,26.46,0,0,1-3.39,9.2c-5.53,10.12-13,17.86-25.08,19.6-1.16.1-2.41-.15-3.34.85a2.23,2.23,0,0,1-2.6.19c-6.23,1.34-11.63-1.87-17.41-3.08-8.23-1.72-14.84-6.09-20.44-12-7.27-7.63-8.91-17.22-8.56-27.38.08-2.28,1-4.91-1.36-6.79,1.28-7.38,5.37-13.12,11.06-17.62,10.89-8.61,25.76-4.32,29.45,8.29,1.24,4.26-.47,7.13-4.82,8-1.87.36-3.93.17-5.62.9-3.78,1.64-8.36,2-9.9,7.24-3.82,13,8.2,23.09,19.47,20.94,13.44-2.56,24.37-9.6,30.84-22.3,4-3,4-11.62,0-15.51l-.39-2.12c1.74-7.3-2.25-13.07-6.75-17.27-14-13.11-31.23-18.3-50.3-16.76-3.33.27-7.46.1-9.53,4a48.93,48.93,0,0,0-27.22,22.76c-11.51,20.2-12.93,40.17,1.08,60,14.7,20.82,34.23,34.92,58.9,40.85,21.33,5.14,40-.38,54.61-17.6,6.25-7.38,10.29-16,13.92-24.77,1.85,4.15,2.19.52,2.65-.61,4.71-11.35,5.72-23.41,6.31-35.48.35-7.23-.31-14.47-.84-21.72-1.34-18.07-7.86-34.17-17.08-49.42-3.42-5.67-8.66-9.86-13.1-15.28,3-.13,4.31,1.53,5.82,2.88,3.37,3,5.74,6.9,8.5,10.43.84,1.07,1.83,3.21,3.58,2,1.41-1,.1-2.66-.62-3.69-4-5.66-7.88-11.3-13.6-15.48a123.13,123.13,0,0,0-52.42-22.34,144.62,144.62,0,0,0-42.17-.61,84.14,84.14,0,0,0-37.08,13.69c-8.77,5.93-19.12,10.63-25,20.32-3.4,5.62-6.27,11.57-9.86,17.06-7.76,11.87-12.76,24.89-15.94,38.55-2.44,10.5-1.05,21.24-.59,32,1.07,24.78,8.61,47.39,20.45,68.84.66,1.2,1.06,3.69,3,2.58,1.58-.9-.28-2.32-.78-3.51-4-9.54-8.66-18.88-11.15-29-2.64-10.72-3.38-21.82-5.62-32.56-2.47-11.87-.92-23.5,0-35.07,1.26-16.15,9.46-30.11,17-44.14,3.84-7.1,8-14.34,13.58-19.69,10.44-10.09,22.92-17.83,37.37-21.36a130.41,130.41,0,0,1,20.81-3.84c8-.63,16.14-1.6,24.11.61l0,0C160,84,146.71,86.8,133.43,89.17c-1.52.27-3.88.56-1.46,3-10.76,3.5-20.66,8.46-29.37,15.87-7.23,6.15-12.17,14-17.52,21.6-1.53.13-2.35,1.09-3.2,2.3-5.48,7.85-9.49,16.48-13.25,25.2-2.18,5-4.38,10.29-5.13,15.65a161.22,161.22,0,0,0-.35,37.65c2,21.49,9.35,41.16,18.95,60.18,1,2,2.41,3.83,5.11,3.65,5.55,9.31,12.94,17,20.78,24.4,5.34,5,12,8.37,17.4,13,11.69,9.93,25.18,15.85,39.43,20.32,31.43,9.86,62.65,10.16,92.48-5.27,20.79-10.75,38.58-25.48,51.56-45.37,1.65-.55,2.13-2.14,3-3.38,7.39-10.81,13.54-22.23,17-35,2.8.26,3.45-1.77,4-3.83,2.68-10.28,4-20.78,5.17-31.32,1.18-10.82-1.91-21.16-3.61-31.61-1-6-3.95-11.67-6.33-18.34l-.86,3.53q-2.41-6.53-4.84-13.05c3.38-.8,1.7-2.82.92-4.35-5.89-11.47-11-23.34-18.4-34-2.81-4.06-6.37-7.84-7.59-12.86-.75-3.11-.26-6.48-2.11-9.36C288.25,77,279,68.12,270.4,58.8c-3.07-3.31-7.17-5.66-10.21-9.33-4.38-5.29-7-5.81-11.28-3.87,3.12,2.88,8,3.83,10.13,9.23-4.72-1.65-7.23-5.48-11.5-5.41-.49-3.05-2.92-4.07-5.37-5A6.73,6.73,0,0,1,238,41.16c-3.11-5.69-11-5-14.39.92l-2.14.27c-5.05-2.39-2.46-4.22.5-5.86,12.44-6.91,25.69-8.29,39.08-4,20,6.42,39.14,14.83,54.63,29.76a79.28,79.28,0,0,1,16.2,22.06c9.16,18.62,19.07,36.82,29.4,54.81,1.1,1.92,2.49,3.76,2.72,6.09,0,5.07,1.26,9.94,2.7,14.72,5.46,18,3.95,36.42,3.07,54.64-.63,13-3.83,25.89-7.28,38.55C361.83,255.4,361.46,257.28,364.51,257.79Zm-321,8.15c.25,1.31-.47,2.78.66,4.14.66-1.66.66-3-.58-4.21a20.06,20.06,0,0,0-.83-6.13c-7-23.94-7.61-48.68-8.26-73.3a108.05,108.05,0,0,1,3.35-28.67c.31-1.29.91-2.56-.39-3.58-.35.12-.58.12-.63.22a8.15,8.15,0,0,0-.59,1.4c-4.09,13.42-6.32,27-5.38,41.17.8,12,.17,24.27,2.5,36.1C35,241.63,38.1,250,40,258.56A14.42,14.42,0,0,0,43.51,265.94Zm296.56,24.95c.79-.66,1.87-1.17,2.31-2,6.89-13,13.9-25.93,18.46-39.95,3.75-11.54,4.29-23.65,5.43-35.66a207.37,207.37,0,0,0-.49-45.45,22,22,0,0,0-5.51-12.41c3.18,13.18,3.77,26.51,3.74,39.93,0,5.71-.75,11.35-1,17-.43,10.89-2.21,21.58-4.28,32.2-2.19,11.25-7.63,21.36-12.32,31.73-2.17,4.82-5.85,9-6.41,14.55-2.12.15-2.82,2-3.6,3.41-7.91,14-17.74,26.64-27.57,39.3-3.3,4.25-8,7.46-10.4,13.38a17.36,17.36,0,0,0,9-6.57c4-5.21,7.79-10.54,11.81-15.72C327.4,314.13,335.28,303.47,340.07,290.89Zm-97.24-8c12.48-2.75,37.51-41.75,42.68-67.51,3.59-17.93,3.79-36-.65-53.92-3.29-13.32-18.46-45.09-24.37-49.63,1.41,2.89,2.2,4.74,3.17,6.49a197.94,197.94,0,0,1,16.63,39.56c4.28,14.45,4.72,29.73,3.33,44.76a104.58,104.58,0,0,1-5.56,25.73c-7,19.67-17.7,37.06-33.31,51.2C243.83,280.42,242.35,281.15,242.83,282.9ZM117.05,225.3c-1.13-10.69-4.1-20-3-30a74.64,74.64,0,0,1,12-33.17,37.5,37.5,0,0,1,13.85-12.88c10.42-5.34,21.5-8.79,33.45-7.07,9.64,1.39,19.73,1.31,28.17,7.46,1.25.91,3.23,2.84,4.38.74,1.06-1.91-1.52-2.67-2.94-3.42-15.44-8.18-31.71-9.78-48.69-6.24a51.08,51.08,0,0,0-32.72,21.94c-8.5,12.45-11.83,26.75-11.27,41.69C110.57,211.41,111.61,218.72,117.05,225.3Zm106.64-63.47c3.2,6.29,4.28,12.86,5.6,19.62,2.3,11.75-.37,21.85-6,31.58-3.51,6.09-7,12.48-13.23,16.36-8.28,5.12-17.29,3.67-26.15,2.23-3.28-.54-6.41-2-10.09-3.14.46,3,2.37,3.22,3.81,4,3.77,1.95,7.91,2.1,12,2.65,8.54,1.13,16.59-.27,23.51-5.27,8.34-6,13.46-14.44,16.16-24.41a65.63,65.63,0,0,0,.31-33.68C228.7,168,227.66,164.07,223.69,161.83Zm44-6.05c-1.09,22.42,1.08,44.93-2.43,67.28C273.65,200.86,272.08,178.36,267.7,155.78ZM110.13,232.6c-5.66-21.94-2.64-43.8.87-65.64C103.26,179.53,100.24,218,110.13,232.6Zm228.4-1.76c6.22-12.8,5.58-41.31.42-57C339.3,193.41,339.53,212.12,338.53,230.84ZM166.3,210.46c0-4.14,0-7.41,0-10.67a14.35,14.35,0,0,1,10.1-14,45.79,45.79,0,0,0,5.79-2.21c1.27-.66,3.32-.41,3.64-2.41.15-1-.73-1.45-1.5-1.88-1.92-1.06-3.49,0-4.65,1.19a24.06,24.06,0,0,1-8.3,5C162.92,188.92,159.3,203.39,166.3,210.46ZM252.09,96.17c1.62,5.32,4.85,9.68,8.07,14C258.6,104.87,256.52,99.82,252.09,96.17Zm-95,111.62c1.48-5.31.78-9.42.52-13.52C154.44,198.32,154.26,202.47,157.06,207.79Zm67.06-49-2.07-1.38c-.15.28-.47.62-.4.82.15.39.45.9.79,1S223.3,159,224.12,158.79Z"/><path class="cls-3" d="M103.19,168.05c-.14.7-.29,1.39-.43,2.09-2.71,8.68-2.85,17.73-3.55,26.66-2.15,27.36,4.29,51.44,26.49,69.75a251,251,0,0,0,41.65,28.14c17.58,9.35,36.22,10.81,55.44,5.93l.37.15.29-.29,2.52-.68a35.56,35.56,0,0,0,11.17-4.16c12.92-5.43,22.13-15.21,30.36-26.09,1.75-2.31,3.91-4.48,4.13-7.66l-.08.08c2.18-.6,2.57-2.58,3.3-4.3,5-6.91,7.54-15,10.58-22.81,5.48-14.13,8.47-28.68,7.59-43.9l-.09-8.31-.09-2c-.15-4.24-.35-8.46-1.82-12.5-1.8-12.45-6.17-24.1-11.48-35.38-8.78-18.64-16.67-38.13-31.72-52.66C232.16,65,215.33,50.92,193.37,45.32c-4.68-2.51-10.07.33-14.81-2.14a37.9,37.9,0,0,1,14.95-.58c4.84.69,9.53,1,14.34-.09a15.09,15.09,0,0,1,7.68.33c2,.58,4.05,1.07,5.9-.49l2.14-.27,2,.25a3.81,3.81,0,0,0,3.19.72l1.51.44a4.93,4.93,0,0,0,3.51,1.16l-.22-.06a2.05,2.05,0,0,0,0,.78c-.37.17-1.09.14-.73.78.12.22.87.08,1.33.11v0c-.71,2.69.81,4.56,2.81,5.57,13.51,6.85,23,18.32,33.35,28.81a3.16,3.16,0,0,0,2.18,1.16l-.05,0,1.09,1.08,0,0a2.06,2.06,0,0,0,1,2.13l0,0,.88,1c3.1,2.53,3.9,7.37,8.49,8.39l.05.06-.26,1.07c-1.61,2.53-2.71.72-3.79-.5-1.79-2-3.36-4.28-5.28-6.18-2.56-2.52-2,.21-2.22,1.48-2.39,0-2.89-2.15-4-3.58-3.8-4.84-7.13-10.15-11.48-14.42a120.23,120.23,0,0,0-16.79-13.53c-4.11-2.79-8.34-6.17-14-5.54l-2.55-1.52-1.33-.86-5.82-3c2.58,4.58,6.52,6.29,9.92,8.56,9.39,6.27,19.23,12.27,25.91,21.46,26.4,36.28,47.3,74.76,45.43,121.66q-1,7.21-2.09,14.41-2,8.4-4,16.78c-2.35,3-3.44,6.72-4.84,10.21-10,24.94-24.88,45.75-49.1,58.94-2.76,1.5-6.52,1.82-8.92,5.63,8.42-1,14.6-5.13,20.4-9.54C266,283,279.08,267.1,287.3,247.51c2.25-5.37,5.6-10.4,6-16.46a51.41,51.41,0,0,0,4.2-17.25c.41-1.56.83-3.12,1.25-4.68l.45-1.45.75-4.7c.06-.54.13-1.07.19-1.6a3.06,3.06,0,0,0,.31-.56c2.58-.13,2,1.83,1.94,3.18,0,2.91-.27,5.82-.42,8.73-1.3.63-1.24,1.88-1.53,3.06-1.84,7.51-2.81,15.21-5.33,22.58-3.83,11.2-9.55,21.36-16.26,31.05-1.63,2.35-3.83,4.74-2.75,8.78a53,53,0,0,0,7-9.57c8.43-14.52,15.94-29.47,19.62-46,.93-4.18,4-8.35,1.55-13l.57-3c.13-.1.38-.21.37-.29a4,4,0,0,0-.24-.82c.53-6.21,1.2-12.41.92-18.66,1.08-8.56-.61-17-1.58-25.37-2-17.76-9.29-33.56-19.14-48.32-1.67-2.51-3.44-5.23-3.43-8.53,5.18,5.07,8.71,11.33,12.4,17.45,5,8.33,9.81,16.82,14.7,25.24,0,1.16-.11,2.37,1.12,3.09l0-.05c0,1.18-.15,2.4,1.07,3.17l0-.05a2.18,2.18,0,0,0,1.05,2.14l0,0c-.12,3.82.42,7.45,3.15,10.42h0c1.1,7,2,14,3.39,20.85.65,3.12.46,6.61,2.75,9.28l.76,3.29c-2.46.64-1.67,2.69-1.71,4.25-.1,4.11,0,8.22,0,12.33l0-.06c-1,.67-.95,1.71-1.12,2.74-1.83,11.17-4.13,22.2-8.38,32.78-2.32,5.75-6.7,10.43-8.18,16.55v0a2,2,0,0,0-1.05,2.09v0a3,3,0,0,0-2.11,3.15l0-.05-1.07,1.09,0,0a2.18,2.18,0,0,0-1.1,2.14l-.83,1-1.23,1.09,0,0-1.07,1.07h0c-2.75,1.32-4.71,3.28-5.24,6.42l-.79.83-1.3,1.23a6.24,6.24,0,0,0,0,.86l0,0c-.29,0-.59,0-.88,0-2.62,0-3.7,2.31-5.41,3.68-7.12,5.66-13.26,12.76-21.92,16.17a74.86,74.86,0,0,0-14.72,7.47c-9.21,6.24-19.57,8.42-30.31,9a125,125,0,0,1-26.27-1.72,133.4,133.4,0,0,1-41.4-13.8,127,127,0,0,1-29.48-21.43c-15.37-14.86-26.67-31.9-32.44-52.48C81.84,227.41,80,219,77.87,210.72a3.75,3.75,0,0,1,0-.82c0-7.51,0-15-.05-22.55,0-1.7.86-3.95-1.86-4.65l-.27-1.9c3.18-2.1,2-5.61,2.62-8.48,1.79-8.46,5.77-16.06,8.94-24a2.25,2.25,0,0,0,1.06-2.07c2.3-1.45,3-3.68,3.12-6.25a2.19,2.19,0,0,0,1-2.08l.22-.44-.24.42a2.22,2.22,0,0,0-1,2.07c-2.33,1.44-3,3.68-3.13,6.24a2.13,2.13,0,0,0-1,2.09c-2,.12-2.32,1.82-3.09,3.11a73.16,73.16,0,0,0-9.78,29.87c-.13.47-.27.94-.41,1.41l-2.15-2.12c-1.12-5.53,1.76-10.77,1.12-16.28-4,11.47-4.68,23.27-3.6,35.25-.07.1-.22.22-.2.31a3.79,3.79,0,0,0,.26.68L70,210.87a.55.55,0,0,0,.08.8l.33,2.18.26.22-.38-.2c1.4,1.34,2.08.62,2-.9a41.41,41.41,0,0,0-.73-4.92l.08.13-.11-.11q.06-3.34.1-6.69l2.13-2c1.77,2.53.62,5.43,1,8.13,0,3.53,0,7.05,0,10.58l-1.34.1c-.88-.49-.42-2.45-1.73-2.09s-.51,1.71-.34,2.63a7.94,7.94,0,0,0,.56,1.44c.46,5.39,1.32,10.69,3.78,15.59,2.7,14.66,8.93,27.73,17.69,39.69,3.24,6.46,8.42,11.37,13.43,16.35C121,305.8,137,317,155.61,324.47a131.12,131.12,0,0,0,67.24,8.6c7.77-1.08,15.5-2.3,22.6-5.94,16.21-5.45,29.63-15.33,42.3-26.46,7.16-6.3,13.11-13.71,19.4-20.82l1.72,1.45c-13,19.89-30.78,34.62-51.57,45.37-29.83,15.43-61.05,15.13-92.48,5.27-14.25-4.47-27.74-10.39-39.43-20.32-5.45-4.62-12.06-8-17.4-13-7.84-7.38-15.23-15.09-20.78-24.4-7.1-13.13-13.46-26.56-17.13-41.12-2.55-10.12-3-20.48-4.2-30.79-2.32-20.23.84-38.95,10.75-56.65,3-5.28,5.64-10.71,8.45-16.07C90.43,122,95.37,114.15,102.6,108c8.71-7.41,18.61-12.37,29.37-15.87l6.25-1c1,1.33,1.68.85,2.16-.44a6.24,6.24,0,0,1,4.09-.61c1.59,1.4,3.06,1.67,4.23-.5,6.54-.53,13.08-.89,19.62,0,1.89,2.47,4.61,2.57,7.38,2.61,1.7,0,3.38-.22,5.07.55,16.47,7.52,34.7,11.5,48.45,24.42L237,125c4.69,7,10,13.47,12.22,21.93,4.31,16.45,7.3,33,6.54,50.09-.73,16.68-4.65,32.45-13.58,46.6-7,11-16.83,18.55-30,21.09-3.5.68-7.28-1-10.53,1.35l-3.39-.54c1.19-2.09,3.25-1.55,5.1-1.68,10.87-.81,20.69-4.05,28.09-12.58,9.19-10.61,16.52-22.32,19.11-36.3A146.66,146.66,0,0,0,252.19,174a119.21,119.21,0,0,0-8.83-34.38c-1.21-3-2.46-5.9-6.73-8.48,4.28,12.66,11.21,23.21,10.81,36.07-.53-.44-.9-.6-1-.86-.4-1.13-.71-2.3-1.07-3.46-3.08-10-7.15-19.56-13.76-27.68a68.22,68.22,0,0,0-27.26-20.06c-17.78-7.38-36-9-54.9-6.53-13,1.69-23.59,8.46-33.76,16-14.36,10.59-22.13,25.31-25.38,42.57-1.88,10-2.42,20.2-3.49,30.32a93.75,93.75,0,0,0,7.05,48.11c1.35,3.15,2.65,6.94,6.88,7.82l.45.22-.41-.26c-.17-1.94-1.8-3.9.11-5.8l8.21,10.47c0,1.38,1,2.1,1.85,3,11.2,12.19,24.5,21.71,38.56,30.25,11.91,7.24,23.56,15.13,37.91,16.82,3.35.39,6.65,2.43,10.56.74-2.11-1.82-4.31-2-6.48-2.44-6.25-1.22-12.57-2.29-18.41-5-17.28-8.07-32.84-18.84-48-30.33-5.62-4.27-9.7-10-14.95-14.54C103,246,97.77,234.7,95.31,222.16c0-2.58.19-5.16.1-7.73a176.51,176.51,0,0,1,2-36.6c1.52-12.85,6.19-24.56,12.93-35.51,7.65-7.4,14.61-15.54,25-19.64,7-2.78,14-5.36,21.58-6.28,17.37-1.15,33.84,2.59,49.79,9.15,1.71,1,3.38,2.15,5.12,3.13,6.69,3.76,11,10,15.8,15.6q4.28,8.78,8.54,17.56c.32,1-.22,2.71,1.87,2.18l0-.09c-1.36,6.23,2,11.8,2.48,17.78a.66.66,0,0,0,.1.86c0,1.44-.28,2.91.56,4.24-.85,1.23-.61,2.64-.63,4-.18,11.82-2,23.24-8.25,33.58-4.07,3.47-6,8.71-10.33,12.05-14.57,11.22-30.25,12.46-46.92,5.69-3.77-1.53-7.41-3.35-11.11-5,3.76,4.56,8.32,7.66,13.75,8.75,11.24,2.27,22.58,2.85,33.65-.82,9.51-3.15,17-9,21.56-18.15,5.62-7.55,7.34-16.58,9.57-25.41l2.9,0c.12.95.25,1.9.38,2.85-3.48,7-3.76,15.07-7.32,22.05,0,0,.5.31,1,.59,3.88-6.4,5.56-13.56,7.59-20.59a1.63,1.63,0,0,0-1-2.06A43.29,43.29,0,0,0,247.06,183c2.26-1.16.66-3.83,2-5.41,1.62,6.71.79,13.35.63,20a80.88,80.88,0,0,1-10.26,38.13c-6.73,12-15.65,21.94-30.37,24.39-8.05,1.33-15.65.14-23.4-2.36-16-5.15-30.19-12.78-40.66-26.24-6-7.76-12.13-15.52-13.87-25.68-.47-2.71.88-5.77-1.19-8.39-2,1.54-1.9,3.12-1.68,5.21,1.22,11.61,6.2,21.42,13.73,30.09,1.5,1.73,1.25,2.7-1,3.13-2.39-1.3-3.35-3.86-4.91-5.83-11.54-14.62-14.86-30.42-6.69-47.91,2.28-4.87,5-9.44,7.74-14,2.74-.05,3.16-2.43,4.2-4.19l0,0c25.62-18.31,48.61-11.87,70.44,7.26-3-5.67-7.16-10.27-13.18-12.86s-11.88-4.79-18-7.24c1.19-1.1,2.79-.45,3.41-1.78,17.76,3,30.59,12.25,37.48,29.17l.39,2.12a56.34,56.34,0,0,1,0,15.51c-6.47,12.7-17.4,19.74-30.84,22.3-11.27,2.15-23.29-7.92-19.47-20.94,1.54-5.27,6.12-5.6,9.9-7.24,1.69-.73,3.75-.54,5.62-.9,4.35-.83,6.06-3.7,4.82-8-3.69-12.61-18.56-16.9-29.45-8.29-5.69,4.5-9.78,10.24-11.06,17.63-7.78,28.19,15.77,55.51,47.77,49.2a2.23,2.23,0,0,0,2.6-.19,4,4,0,0,0,3.34-.85c12.1-1.74,19.55-9.48,25.08-19.6a26.46,26.46,0,0,0,3.39-9.2,28.88,28.88,0,0,0,2.1-10.83c1.89-23.18-3.7-44.08-19.56-61.52-6.61-7.27-15.77-10.56-24.92-13.37-24.25-7.44-47.31-6.41-67.64,10.71-9.73,8.19-16.85,18.25-19.68,30.93C103.63,166.69,103.41,167.37,103.19,168.05Zm56.9,66.61-1.09-.75-.26.38,1.3.43c.09.68.15,1.4,1,1.52.17,0,.59-.4.57-.57C161.5,234.81,160.75,234.77,160.09,234.66ZM95.58,132.75c.87-.47,1.77-.93,1.69-2.14,0-.11-.29-.31-.37-.28-1.12.41-1.25,1.4-1.34,2.4l-.22.44Zm-10,6.47a5.56,5.56,0,0,0,2-3.13A42,42,0,0,0,96.1,122,29.38,29.38,0,0,0,87,135.63a4.44,4.44,0,0,0-2.08,3.14l-.77,1.6c-3.72,7-8.88,13.44-10.28,21.48l1.18.54q4.77-10.17,9.52-20.35Zm48.5,43.44c-3.08,3-3.86,6.91-4.18,11,2.51-3.24,3.58-7,4.2-10.94l.21-.45ZM146.54,218c1.52,5.64,4.18,10.4,9.94,12.83-3.38-4.06-5.64-8.77-8.27-13.25l-2.76-9.86c.05-13.57,1.7-26.63,12.43-36.84-3.08,0-4.21,2-5.58,3.64-5.37,6.22-7.34,13.9-9,21.68-.85,3.88-2,7.75.22,11.56A45.72,45.72,0,0,0,146.54,218Zm53.12-46.82c0-2.54-.89-4.28-4-4.87.52,2.76,2.22,3.84,3.85,5,1.7,5.9,3.73,11.74,2.75,18.13C206.37,183,205,175.1,199.66,171.17Zm15.42,24.92c-6.57,4.81-12.29,10.94-20.52,13.18a21,21,0,0,1-8.4.23c.28-1.87,1.84-1.5,3.08-1.93,5.13-1.82,11-2.16,14.58-7.15,5,.21,5.16-4.54,7-7.22,2.95-4.23,2.14-12.1-.74-15.51-.61-.71-1.22-1.33-2.14-.92s-.71,1.4-.31,2.17c1,1.88,1,3.93,1.39,5.95,1.15,6.23-2.35,10.7-5.33,15.42-6.38,2.56-12.72,5.24-19.89,4.23-1.81-.26-2.94.7-3.12,2.61-3.55-2.59-1.52-6.85-2.58-10.91-4.86,9.48-1.43,15.63,8,16.44,3.13.27,5.66-1.14,8.45-1.85,5.45-.19,9.71-3.09,13.81-6.23,2.92-2.23,6.77-3.77,6.9-8.35,3.63-6,2.2-18.94-3.71-23.18C216,181.08,215.19,188.62,215.08,196.09ZM185,165.47c9.95,5.74,13.33,14.67,12.29,25.77a17.16,17.16,0,0,0,1.49-3.5c2.49-9.14-5.19-22.32-13.81-23.73-3.43-3.82-8.09-2.75-12.39-3.1.69-2.43,0-3.51-2.72-3.21-10.7,1.2-19.25,5.81-24.74,15.35a63.38,63.38,0,0,0-6.46,17.38c-2.17,9.33-2.8,18.9,1.06,27.9,1.64,3.81,2.68,8.79,7.88,10.14l.46.2-.42-.24c-5.57-11.46-8.31-23.22-6.39-36.2,2.09-14.09,9-24.18,21.55-30.57,1.87-1,3.89-1.59,5.65.36-1.57,1.24-4.48.58-5.27,4.33C170.66,164.34,177.82,163.22,185,165.47ZM134.64,97.91a2.24,2.24,0,0,0-3-1.29c-9.63,3.74-19.26,7.52-27.24,14.37-.79.67-2.55,1.41-1.58,2.76s2.3.53,3.47-.45c4.62-3.85,9.3-7.63,15.12-9.62,3.73-1.28,7.44-2.63,11.15-4C133.47,99.39,134.72,99.42,134.64,97.91Z"/><path class="cls-4" d="M31.09,151.47c1.65,1.65.92,3.47.47,5.32a111,111,0,0,0-2.62,21.5c-1,27.54,1.13,54.87,7.56,81.6,4,16.51,9.88,32.62,21.25,46,.7.83,1.3,1.6,2.45,1.66l.39.23-.39-.23c-.11-4.2-4.75-5.84-5.48-9.71-.2-1.11-1.39-2.47.07-3.18s2,.94,2.55,1.93a94.4,94.4,0,0,0,13.73,17.33c2.2,2.27,4.74,4.52,2.2,8.89-1.78,3.07,2.23,3.76,4.6,4.53l.42.21-.39-.25c.51-.78-2.11-3.71,1.68-2.29,5.42,2,9.81,5.75,14.59,8.78,20.16,12.79,42.51,19.24,65.66,23.82,19.72,3.91,39.62,3.41,59.44,2.78,17.91-.56,35.8-2.35,53.73-3.05,3.88-.16,7.7-1.78,11.56-2.7,1-.24,2.34-.59,2.77.53.6,1.59-.89,2-2,2.34-1.8.56-3.62,1.06-5.65,1.64-.08,1.88,2.86,2.07,2.25,4.05-5.46,1.69-11,2.92-16.77,2.45-2.81-1.27-5.6-1.57-8.31.29a85,85,0,0,1-16.64.74c-.39-.52-.73-.47-1,.08l-2.07.13a2.61,2.61,0,0,0-2.74-1c-.45.05-1.6-.41-1.13.82.11.29.92.31,1.4.45a271.47,271.47,0,0,1-36.06,1.59,8.91,8.91,0,0,0-8.28.08l-4.2-.12a1.93,1.93,0,0,0-3.07-.06,31.66,31.66,0,0,1-10.41-.62c-.62-1.06-1.31-1.18-2.1-.19a15.78,15.78,0,0,1-6.37-.64c-.17-.85-.46-1-.91-.15-41.64-6.1-79.6-19.73-105.89-54.92-14.51-19.44-22.4-42-26.46-65.92-4.63-27.31-7-54.65-2.92-82.24C28.55,159.68,29,155.36,31.09,151.47ZM62,310.67l-.2-.38c-.09.11-.25.21-.26.32s.12.25.19.38Z"/><path class="cls-4" d="M364.51,257.79c-3.05-.51-2.68-2.39-2.06-4.66,3.45-12.66,6.65-25.55,7.28-38.55.88-18.22,2.39-36.67-3.07-54.64-1.44-4.78-2.69-9.65-2.7-14.72A78.85,78.85,0,0,1,373,177a215.58,215.58,0,0,1-1.42,45.13C369.88,234.14,368.82,246.29,364.51,257.79Z"/><path class="cls-2" d="M256.81,365.9c2.71-1.86,5.5-1.56,8.31-.29A26.63,26.63,0,0,1,256.81,365.9Z"/><path class="cls-2" d="M190.25,368.77a8.91,8.91,0,0,1,8.28-.08A20.8,20.8,0,0,1,190.25,368.77Z"/><path class="cls-2" d="M234.59,367.1c-.48-.14-1.29-.16-1.4-.45-.47-1.23.68-.77,1.13-.82a2.61,2.61,0,0,1,2.74,1A2.23,2.23,0,0,1,234.59,367.1Z"/><path class="cls-2" d="M183,368.59a1.93,1.93,0,0,1,3.07.06Z"/><path class="cls-2" d="M170.47,367.78c.79-1,1.48-.87,2.1.19Z"/><path class="cls-2" d="M163.19,367c.45-.83.74-.7.91.15l-.49.15Z"/><path class="cls-2" d="M239.13,366.72c.31-.55.65-.6,1-.08Z"/><path class="cls-4" d="M168.32,89.58c-6.54-.9-13.08-.54-19.62,0a4.58,4.58,0,0,0-4.23.5,6.24,6.24,0,0,0-4.09.61,1.65,1.65,0,0,0-2.16.44l-6.25,1c-2.42-2.4-.06-2.69,1.46-3C146.71,86.8,160,84,173.6,84.87c2.56,2,5.55.65,8.32,1,1.21,1.44,2.55,1,3.89.57a1.17,1.17,0,0,0-.92-.53c-1,0-2,0-3,0-2.57-2-5.56-.63-8.33-1-8-2.21-16.11-1.24-24.11-.61a130.41,130.41,0,0,0-20.81,3.84c-14.45,3.53-26.93,11.27-37.37,21.36-5.54,5.35-9.74,12.59-13.58,19.69-7.59,14-15.79,28-17,44.14-.91,11.57-2.46,23.2,0,35.07,2.24,10.74,3,21.84,5.62,32.56,2.49,10.12,7.12,19.46,11.15,29,.5,1.19,2.36,2.61.78,3.51-2,1.11-2.36-1.38-3-2.58C63.36,249.42,55.82,226.81,54.75,202c-.46-10.72-1.85-21.46.59-32,3.18-13.66,8.18-26.68,15.94-38.55,3.59-5.49,6.46-11.44,9.86-17.06,5.87-9.69,16.22-14.39,25-20.32a84.14,84.14,0,0,1,37.08-13.69,144.62,144.62,0,0,1,42.17.61A123.13,123.13,0,0,1,237.8,103.4c5.72,4.18,9.65,9.82,13.6,15.48.72,1,2,2.72.62,3.69-1.75,1.19-2.74-.95-3.58-2-2.76-3.53-5.13-7.39-8.5-10.43-1.51-1.35-2.84-3-5.82-2.88,4.44,5.42,9.68,9.61,13.1,15.28,9.22,15.25,15.74,31.35,17.08,49.42.53,7.25,1.19,14.49.84,21.72-.59,12.07-1.6,24.13-6.31,35.48-.46,1.13-.8,4.76-2.65.61.54-2.19,1.05-4.38,1.63-6.55,6.92-26.19,5.68-52.15-2.4-77.85-2.39-7.61-5.59-14.91-11-21a1.43,1.43,0,0,0-1.25-1.56,12.28,12.28,0,0,0-4-4.67,1,1,0,0,0-1-1.08l-2.17-2a7.23,7.23,0,0,0-1.13-1.69C215.66,97.08,193,90.47,168.32,89.58ZM225.6,100.5l.42.22-.39-.25c-.28-2.28-1.52-3.33-3.81-2.86-.36.08-.91.74-.85,1,.56,2.29,2.52,1.73,4.12,1.9A4.34,4.34,0,0,0,225.6,100.5Zm6.83,4.93-.82-.36c-.12.27-.38.61-.3.79s.5.26.77.38C232.19,106,232.31,105.7,232.43,105.43ZM216.5,96.94c.11-.27.38-.6.3-.79s-.5-.25-.77-.37c-.11.27-.38.6-.3.79S216.22,96.82,216.5,96.94Z"/><path class="cls-3" d="M239.17,118.15a12.28,12.28,0,0,1,4,4.67,1.67,1.67,0,0,0,1.25,1.56c5.43,6.06,8.63,13.36,11,21,8.08,25.7,9.32,51.66,2.4,77.85-.58,2.17-1.09,4.36-1.63,6.55-3.63,8.82-7.67,17.39-13.92,24.77-14.58,17.22-33.28,22.74-54.61,17.6-24.67-5.93-44.2-20-58.9-40.85-14-19.84-12.59-39.81-1.08-60a48.93,48.93,0,0,1,27.22-22.76c4.49-.2,8.89-1.74,13.45-.82-.1,1.55,1.9,1.28,2.21,2.52-1.44,1.19-3.14,1.12-4.84,1.29-6,.63-11.93,1.73-17.11,4.83-3,1.78-7.26,2.83-7.27,7.64l0,0c-2.28.12-3.39,1.69-4.33,3.48-10.68,11.13-16.15,24.75-13.46,39.66,4,22.1,19.05,36.86,37.4,48.52a6.91,6.91,0,0,0,3.12,2.56c10,4.87,20.19,8.91,31.34,10.12.31.46.65.54,1,.09l2.09,0c.38.44.73.39,1-.08l1.94-.4c24.88.45,38.76-12,47.42-31.83a111.3,111.3,0,0,0,9.1-57c-1.33-12.43-3.14-24.68-7.55-36.35-2.69-7.14-5.66-14.38-12-19.38L234,118.09c-.06-1.49,0-2.86,2-3l2.17,2Z"/><path class="cls-4" d="M222.79,300.62c-19.22,4.88-37.86,3.42-55.44-5.93a251,251,0,0,1-41.65-28.14c-22.2-18.31-28.64-42.39-26.49-69.75.7-8.93.84-18,3.55-26.66,2.21,2.59,1.4,5.76.94,8.45-2.27,13.2-2.26,26.51-1.73,39.78.34,8.79,2,17.52,8.39,24.45,2.48,2.72,2.86,6.94,6.55,9.47.58-3.59-2.24-5.3-2.92-7.82-.36-1.38-2.47-2.92-.82-4.06,1.84-1.26,2.62,1.18,3.31,2.31,7.68,12.73,18.73,22.15,31.07,29.77,9.93,6.14,19.17,13.63,30.41,17.53,18.42,6.39,36.78,6.89,55-.7a4.21,4.21,0,0,1,1.49-.3c.3,0,.6.27,1.81.86A65.77,65.77,0,0,1,209.15,298,68.42,68.42,0,0,1,181,295.15c1.31,2.16,3.61,2.23,5.5,2.91a27.2,27.2,0,0,0,6.54,1.48c7.47.67,14.95,2.14,22.47.11C218,299,220.63,298.31,222.79,300.62ZM126.3,262.48c-1.89-4.36-2.17-4.6-5.73-4.9C122.18,259.69,123.41,261.75,126.3,262.48Zm5.23,2.8a7.57,7.57,0,0,0-1.32-1.07c-.19-.08-.55.23-.83.36.22.36.35.9.67,1S130.83,265.46,131.53,265.28Zm46.19,29.47.38-.2c-.11-.09-.21-.24-.33-.25s-.25.11-.37.18Z"/><path class="cls-3" d="M328.85,243c-3.47,12.72-9.62,24.14-17,35-.85,1.24-1.33,2.83-3,3.38-.56-.49-1.14-1-1.71-1.45,3-5.51,7.62-10.18,9.15-17.26-2.55,1.23-2.93,3.06-3.74,4.5-11.38,20.22-28.61,34.57-47.34,47.44-1.82-2.36,0-3.2,1.65-4.31,7-4.89,13.84-10,19.66-16.36,2-2.12,4.11-4.13,4.58-7.2v0a2.84,2.84,0,0,0,3.13-3.13h0c3.36-.74,5.22-2.71,5.21-6.25v0c2.49-.31,2.84-2.23,3.14-4.19l0,0,1.23-1.1,1.8-3.05a2.13,2.13,0,0,0,1.18-2.12l0,0c3.69-2,4.64-5.59,5.25-9.35,3.81-1.58,3.48-5.22,4.14-8.37l0,.05a2.09,2.09,0,0,0,1.05-2.14l0,0c3-2.06,3.05-5.22,3.15-8.36l0,.05c1.5-1.11,1-2.74,1.08-4.21l0,0c1.23-.92,1.41-1.92.21-3,2.16-6.08,2.49-12.47,2.92-18.79.73-10.54-.54-21-1.81-31.43l2.18-2a78.15,78.15,0,0,1,3.05,36,200.41,200.41,0,0,1-4.4,25.4q-2.74,8.07-5.5,16.13a30,30,0,0,0,7.09-16.1c1.26-.84,1.34-2.23,1.75-3.53,2-6.37,1.33-13.15,3.1-19.55,1.73-5.21.59-10.58.7-15.87.05-2.59,1.24-5.55-1.21-7.82-2.14-5.35-.73-11.39-3.25-16.67-.79-10.79-4.85-20.58-9.3-30.25a14.56,14.56,0,0,0-2.78-5.71l-1-4.6,1.29-3.53q4,7.48,8.08,14.95,2.43,6.53,4.84,13.05a.33.33,0,0,0,.29.45l.83,2.64c4.54,16.74,7.22,33.69,5.44,51.1A189.75,189.75,0,0,1,328.85,243Z"/><path class="cls-4" d="M322.37,148.35q-4-7.47-8.08-14.95c-1.58-4.78-4.21-9-6.8-13.28-10.4-17.13-22.89-32.68-36.08-47.7.86-1.39-.44-.91-1-1.11l-7.22-7.26c.57-1.42-.61-.88-1.17-1v0a1.91,1.91,0,0,0-2.24-2l-2.11-1.66c-.16-.74-.57-1.11-1.36-.91l0,0c.09-1.54-.93-1.59-2-1.51a12,12,0,0,1-5.79-4.23c-.36-1-.71-2.1-1.06-3.15l.13-.16c4.27-.07,6.78,3.76,11.5,5.41-2.14-5.4-7-6.35-10.13-9.23,4.28-1.94,6.9-1.42,11.28,3.87,3,3.67,7.14,6,10.21,9.33,8.62,9.32,17.85,18.17,24.79,29,1.85,2.88,1.36,6.25,2.11,9.36,1.22,5,4.78,8.8,7.59,12.86,7.39,10.69,12.51,22.56,18.4,34C324.07,145.53,325.75,147.55,322.37,148.35ZM261.72,56.44c2.67,3.71,5.12,7.62,9.43,9.59C269.12,61.72,265.68,58.79,261.72,56.44Z"/><path class="cls-4" d="M242.83,282.9c-.48-1.75,1-2.48,1.92-3.32,15.61-14.14,26.27-31.53,33.31-51.2a104.58,104.58,0,0,0,5.56-25.73c1.39-15,.95-30.31-3.33-44.76a197.94,197.94,0,0,0-16.63-39.56c-1-1.75-1.76-3.6-3.17-6.49,5.91,4.54,21.08,36.31,24.37,49.63,4.44,17.92,4.24,36,.65,53.92C280.34,241.15,255.31,280.15,242.83,282.9Z"/><path class="cls-4" d="M117.05,225.3c-5.44-6.58-6.48-13.89-6.75-21-.56-14.94,2.77-29.24,11.27-41.69a51.08,51.08,0,0,1,32.72-21.94c17-3.54,33.25-1.94,48.69,6.24,1.42.75,4,1.51,2.94,3.42-1.15,2.1-3.13.17-4.38-.74-8.44-6.15-18.53-6.07-28.17-7.46-12-1.72-23,1.73-33.45,7.07a37.5,37.5,0,0,0-13.85,12.88,74.64,74.64,0,0,0-12,33.17C113,205.32,115.92,214.61,117.05,225.3Z"/><path class="cls-4" d="M85.08,129.6c-2.81,5.36-5.49,10.79-8.45,16.07-9.91,17.7-13.07,36.42-10.75,56.65,1.18,10.31,1.65,20.67,4.2,30.79,3.67,14.56,10,28,17.13,41.12-2.7.18-4.08-1.61-5.11-3.65-9.6-19-16.93-38.69-18.95-60.18a161.22,161.22,0,0,1,.35-37.65c.75-5.36,3-10.62,5.13-15.65,3.76-8.72,7.77-17.35,13.25-25.2C82.73,130.69,83.55,129.73,85.08,129.6Z"/><path class="cls-4" d="M340,290.84c.56-5.53,4.24-9.73,6.41-14.55,4.69-10.37,10.13-20.48,12.32-31.73,2.07-10.62,3.85-21.31,4.28-32.2.23-5.67,1-11.31,1-17,0-13.42-.56-26.75-3.74-39.93a22,22,0,0,1,5.51,12.41,207.37,207.37,0,0,1,.49,45.45c-1.14,12-1.68,24.12-5.43,35.66-4.56,14-11.57,27-18.46,39.95-.44.84-1.52,1.35-2.31,2Z"/><path class="cls-4" d="M43.51,265.94A14.42,14.42,0,0,1,40,258.56C38.1,250,35,241.63,33.36,233.08,31,221.25,31.66,209,30.86,197c-.94-14.19,1.29-27.75,5.38-41.17a8.15,8.15,0,0,1,.59-1.4c.05-.1.28-.1.63-.22,1.3,1,.7,2.29.39,3.58a108.05,108.05,0,0,0-3.35,28.67c.65,24.62,1.29,49.36,8.26,73.3a20.06,20.06,0,0,1,.83,6.13Z"/><path class="cls-4" d="M223.69,161.83c4,2.24,5,6.12,5.95,9.9a65.63,65.63,0,0,1-.31,33.68c-2.7,10-7.82,18.4-16.16,24.41-6.92,5-15,6.4-23.51,5.27-4.1-.55-8.24-.7-12-2.65-1.44-.74-3.35-1-3.81-4,3.68,1.17,6.81,2.6,10.09,3.14,8.86,1.44,17.87,2.89,26.15-2.23,6.26-3.88,9.72-10.27,13.23-16.36,5.61-9.73,8.28-19.83,6-31.58C228,174.69,226.89,168.12,223.69,161.83Z"/><path class="cls-4" d="M328.85,243a189.75,189.75,0,0,0,4.92-27.38c1.78-17.41-.9-34.36-5.44-51.1a2.25,2.25,0,0,0-.83-2.64.33.33,0,0,1-.29-.45l.86-3.53c2.38,6.67,5.35,12.35,6.33,18.34,1.7,10.45,4.79,20.79,3.61,31.61-1.16,10.54-2.49,21-5.17,31.32C332.3,241.2,331.65,243.23,328.85,243Z"/><path class="cls-4" d="M168.34,147.68c-4.56-.92-9,.62-13.45.82,2.07-3.92,6.2-3.75,9.53-4,19.07-1.54,36.27,3.65,50.3,16.76,4.5,4.2,8.49,10,6.75,17.27-6.89-16.92-19.72-26.21-37.48-29.17-3.24-1.82-7-1.27-10.41-2.2-.29-.5-.63-.56-1-.09Z"/><path class="cls-4" d="M199.13,239.94c-32,6.31-55.55-21-47.77-49.2,2.34,1.87,1.44,4.5,1.36,6.78-.35,10.16,1.29,19.75,8.56,27.38,5.6,5.87,12.21,10.24,20.44,12C187.5,238.07,192.9,241.28,199.13,239.94Z"/><path class="cls-4" d="M267.7,155.78c4.38,22.58,5.95,45.08-2.43,67.28C268.78,200.71,266.61,178.2,267.7,155.78Z"/><path class="cls-4" d="M110.13,232.6c-9.89-14.63-6.87-53.07.87-65.64C107.49,188.8,104.47,210.66,110.13,232.6Z"/><path class="cls-4" d="M340.07,290.89c-4.79,12.58-12.67,23.24-20.81,33.75-4,5.18-7.84,10.51-11.81,15.72a17.36,17.36,0,0,1-9,6.57c2.44-5.92,7.1-9.13,10.4-13.38,9.83-12.66,19.66-25.29,27.57-39.3.78-1.39,1.48-3.26,3.6-3.41Z"/><path class="cls-4" d="M338.53,230.84c1-18.72.77-37.43.42-57C344.11,189.53,344.75,218,338.53,230.84Z"/><path class="cls-4" d="M271.63,261.89c-.22,3.18-2.38,5.35-4.13,7.66-8.23,10.88-17.44,20.66-30.36,26.09-.35-2.62,1.65-3.58,3.39-4.65A83.84,83.84,0,0,0,267,265.3C268.11,263.57,269.05,261.64,271.63,261.89Z"/><path class="cls-4" d="M166.3,210.46c-7-7.07-3.38-21.54,5.09-25a24.06,24.06,0,0,0,8.3-5c1.16-1.16,2.73-2.25,4.65-1.19.77.43,1.65.91,1.5,1.88-.32,2-2.37,1.75-3.64,2.41a45.79,45.79,0,0,1-5.79,2.21,14.35,14.35,0,0,0-10.1,14C166.27,203.05,166.3,206.32,166.3,210.46Z"/><path class="cls-4" d="M225.58,42.33l-2-.25c3.38-6,11.28-6.61,14.39-.92a6.73,6.73,0,0,0,4.21,3.28c2.45.91,4.88,1.93,5.37,5l-.13.16-2.65.18L236.09,46c-.32-1.41-1.22-1.76-2.52-1.38l.22.06c-.72-1.76-2.15-1.35-3.51-1.16l-1.51-.44Q227.81,39.84,225.58,42.33Z"/><path class="cls-4" d="M291,168.14c1.47,4,1.67,8.26,1.82,12.5a1.16,1.16,0,0,0,.09,2L293,191c-.45-.24-1.3-.47-1.3-.7C291.76,182.88,289.11,175.58,291,168.14Z"/><path class="cls-4" d="M252.09,96.17c4.43,3.65,6.51,8.7,8.07,14C256.94,105.85,253.71,101.49,252.09,96.17Z"/><path class="cls-4" d="M157.06,207.79c-2.8-5.32-2.62-9.47.52-13.52C157.84,198.37,158.54,202.48,157.06,207.79Z"/><path class="cls-4" d="M221.84,196.14a56.34,56.34,0,0,0,0-15.51C225.86,184.52,225.85,193.11,221.84,196.14Z"/><path class="cls-4" d="M235.64,199.27a28.88,28.88,0,0,1-2.1,10.83c-3.67-4.33,0-8.42.64-12.54C234.29,196.91,234.76,199,235.64,199.27Z"/><path class="cls-4" d="M274.85,257.67c-.73,1.72-1.12,3.7-3.3,4.3C271.12,259.36,272,257.73,274.85,257.67Z"/><path class="cls-4" d="M43.59,265.87c1.24,1.19,1.24,2.55.58,4.21-1.13-1.36-.41-2.83-.66-4.14Z"/><path class="cls-4" d="M224.12,158.79c-.82.24-1.31.55-1.68.44s-.64-.61-.79-1c-.07-.2.25-.54.4-.82Z"/><path class="cls-4" d="M226,299.8l-2.52.68C223.85,298.63,224.48,297.61,226,299.8Z"/><path class="cls-4" d="M103.19,168.05c.22-.68.44-1.36.65-2C105.35,167.24,104.52,167.73,103.19,168.05Z"/><path class="cls-4" d="M205.07,238.9a4,4,0,0,1-3.34.85C202.66,238.75,203.91,239,205.07,238.9Z"/><path class="cls-5" d="M141,235.91c2.25-.43,2.5-1.4,1-3.13-7.53-8.67-12.51-18.48-13.73-30.09-.22-2.09-.32-3.67,1.68-5.21,2.07,2.62.72,5.68,1.19,8.39C132.9,216,139,223.79,145,231.55c10.47,13.46,24.7,21.09,40.66,26.24,7.75,2.5,15.35,3.69,23.4,2.36,14.72-2.45,23.64-12.35,30.37-24.39a80.88,80.88,0,0,0,10.26-38.13c.16-6.7,1-13.34-.63-20-1.37,1.58.23,4.25-2,5.41-1.82,6-1.14,12.3-1.71,18.45l-2.9,0c-1-4.91,2.76-9.66.53-14.62.28-8.06-.59-15.86-5-22.91l0,.09-.21-2.18c-1.88-6.81-4.44-13.29-8.89-18.9-4.4-9-11.14-15.52-20.64-19-15.69-8.77-32.77-10.52-50.31-10-2.23.07-1.29,1.4-1.07,2.47-7.54.92-14.55,3.5-21.58,6.28-10.38,4.1-17.34,12.24-25,19.63l-.6-.55c2.3-6.29,7.81-9.8,12.46-13.95,4-3.56,8.55-6.46,12.86-9.65.07-.13.15-.25.23-.38l-.21.41c-1.67.37-3.52.4-5,1.17-18,9.62-30.89,23.35-35.51,43.81-4.18,18.47-4.55,37.21-4.2,56,0,1.84-.34,3.86,1.65,5.14.39-1,.75-2,1.11-2.93l1,.8c-1,5.82,1.17,11.14,2.57,16.59-2,2.65-.3,3.59,2,4.25a2.21,2.21,0,0,1,1,2.06c-.82.15-1.89.18-1.66,1.37a1.74,1.74,0,0,0,2.3,1.37.39.39,0,0,1,.51-.23c-1.92,1.9-.29,3.86-.12,5.8l0,0c-4.23-.88-5.53-4.67-6.88-7.82a93.75,93.75,0,0,1-7.05-48.11c1.07-10.12,1.61-20.3,3.49-30.32,3.25-17.26,11-32,25.38-42.57,10.17-7.5,20.8-14.27,33.76-16,18.85-2.45,37.12-.85,54.9,6.53a68.22,68.22,0,0,1,27.26,20.06c6.61,8.12,10.68,17.7,13.76,27.68.36,1.16.67,2.33,1.07,3.46.1.26.47.42,1,.86.4-12.86-6.53-23.41-10.81-36.07,4.27,2.58,5.52,5.5,6.73,8.48A119.21,119.21,0,0,1,252.19,174a146.66,146.66,0,0,1-1.65,40.88c-2.59,14-9.92,25.69-19.11,36.3-7.4,8.53-17.22,11.77-28.09,12.58-1.85.13-3.91-.41-5.1,1.68-12.89-.85-24.26-6.55-36-11.22C154.65,248.78,146.45,244,141,235.91Z"/><path class="cls-1" d="M291.11,286.66c-.47,3.07-2.63,5.08-4.58,7.2-5.82,6.34-12.63,11.47-19.66,16.36-1.61,1.11-3.47,1.95-1.66,4.31l-11.33,5.66a3.56,3.56,0,0,0-3.79-.31,103.83,103.83,0,0,1-58.75,8.54c-2.7-.38-5.53-.5-7.92,1.4a86.8,86.8,0,0,1-27.27-7.39c-24.19-11.16-45.57-26.37-61.46-48.32q-3.84-7.69-7.69-15.38c2.14-1.45.67-3,.13-4.52-2.86-8-6.73-15.71-8.51-24.13-.88-4.13-1.8-8.28-3.87-12.05l0,0c0-3.53,0-7.05,0-10.58.85,3.15,1.71,6.3,2.56,9.44l.53-.06v-6.13c2.08,8.32,4,16.69,6.29,24.95,5.77,20.58,17.07,37.62,32.44,52.48a127,127,0,0,0,29.48,21.43,133.4,133.4,0,0,0,41.4,13.8,125,125,0,0,0,26.27,1.72c10.74-.58,21.1-2.76,30.31-9a74.86,74.86,0,0,1,14.72-7.47c8.66-3.41,14.8-10.51,21.92-16.17,1.71-1.37,2.79-3.66,5.41-3.68.27.89.56.9.88,0l0,0C288.85,289,289.62,287.13,291.11,286.66Z"/><path class="cls-5" d="M226.11,53.05c5.63-.63,9.86,2.75,14,5.54a120.23,120.23,0,0,1,16.79,13.53c4.35,4.27,7.68,9.58,11.48,14.42,1.13,1.43,1.63,3.57,4,3.58h0c-.06,1.51.17,2.86,2,3.24a51.09,51.09,0,0,0,7.33,11.29c0,3.3,1.76,6,3.43,8.53,9.85,14.76,17.1,30.56,19.14,48.32,1,8.4,2.66,16.81,1.58,25.37-.88-.55-2.09-2.83-2.27.42-.19,3.57-.3,7.14-.69,10.68-.14,1.3.74,4-2.46,3-.29-1.18-.57-2.35-.86-3.53,1.35-5.82.95-11.69.27-17.53-2.15-18.54-6.94-36.33-15.31-53.11-8.81-17.67-17.44-35.44-30.66-50.42C245.78,67.19,235.62,60.52,226.11,53.05Z"/><path class="cls-1" d="M236.09,46l8.67,3.79,3.71,3A12,12,0,0,0,254.26,57a1.77,1.77,0,0,0,2,1.51l.06,0,1.35.91L259.81,61a3.52,3.52,0,0,0,2.24,2v0l1.17,1,7.22,7.26,1,1.11c13.19,15,25.68,30.57,36.08,47.7,2.59,4.26,5.22,8.5,6.8,13.28L313,136.93l-3.77-5.54a5.77,5.77,0,0,0-2.06-3.12L306,126.22c-.17-.79-.34-1.58-1.32-1.78l0,0c-.69-3.64-2.68-6.58-5-9.32l-5.45-8.19c-2.71-4.79-4-10.67-10.23-12.63l-.05-.06c-1.68-5.34-6-8.79-9.38-12.9-.64-.78-1.51-.47-2,.46a3.16,3.16,0,0,1-2.18-1.16c-10.34-10.49-19.84-22-33.35-28.81-2-1-3.52-2.88-2.81-5.57Z"/><path class="cls-2" d="M226.11,53.05c9.51,7.47,19.67,14.14,27.76,23.3,13.22,15,21.85,32.75,30.66,50.42,8.37,16.78,13.16,34.57,15.31,53.11.68,5.84,1.08,11.71-.27,17.53l-1.9,1.92c1.87-46.9-19-85.38-45.43-121.66-6.68-9.19-16.52-15.19-25.91-21.46-3.4-2.27-7.34-4-9.92-8.56l5.82,3a1.15,1.15,0,0,0,1.33.86Z"/><path class="cls-5" d="M238.5,123.32c6.36,5,9.33,12.24,12,19.38,4.41,11.67,6.22,23.92,7.55,36.35a111.3,111.3,0,0,1-9.1,57c-8.66,19.79-22.54,32.28-47.42,31.83,0-.63,0-1.26.08-1.89,3.25-2.38,7-.67,10.53-1.35,13.21-2.54,23.07-10,30-21.09,8.93-14.15,12.85-29.92,13.58-46.6.76-17.11-2.23-33.64-6.54-50.09-2.22-8.46-7.53-15-12.22-21.93A1.82,1.82,0,0,0,238.5,123.32Z"/><path class="cls-2" d="M94.69,274.11c15.89,21.95,37.27,37.16,61.46,48.32a86.8,86.8,0,0,0,27.27,7.39,24.23,24.23,0,0,0,2.42.77c12.48,2.66,25,1.9,37.62,1-.2.49-.41,1-.61,1.49a131.12,131.12,0,0,1-67.24-8.6C137,317,121,305.8,106.82,291.76c-5-5-10.19-9.89-13.43-16.36Z"/><path class="cls-5" d="M236,115.07c-2,.16-2.05,1.53-2,3-1.63-.07-2.6-3.57-4.75-.93-13.75-12.92-32-16.9-48.45-24.42-1.69-.77-3.37-.53-5.07-.55-2.77,0-5.49-.14-7.38-2.61,24.69.89,47.34,7.5,66.51,23.8A7.23,7.23,0,0,1,236,115.07Z"/><path class="cls-1" d="M281.7,104.65a50.93,50.93,0,0,1-7.33-11.3,2.87,2.87,0,0,0-2-3.23h0c.23-1.27-.34-4,2.22-1.48,1.92,1.9,3.49,4.14,5.28,6.18,1.08,1.22,2.18,3,3.79.5,3.54,3.83,5.14,9.08,9.19,12.53q2.26,4.14,4.55,8.28c1.8,3.3,3.67,6.53,7.25,8.26l0,0c0,.69,0,1.38,0,2.07-.93.47-3-1.38-2.75.61s-1.51,4.54.76,5.71c6.17,3.19,7.2,8.32,6.21,14.44l-.07.07c-4.89-8.42-9.68-16.91-14.7-25.24C290.41,116,286.88,109.72,281.7,104.65Z"/><path class="cls-5" d="M322.6,181.46c1.27,10.44,2.54,20.9,1.81,31.44-.43,6.32-.76,12.71-2.92,18.79l-.21,3,0,0c-1.38,1.14-1,2.73-1.08,4.21l0-.05c-2.06,2.41-2.65,5.37-3.15,8.36l0,0a2.44,2.44,0,0,0-1.05,2.14l0-.05c-1.82,1.39-1.57,4.42-4.14,5.21-.36-1.83.7-3.3,1.23-4.92,3.61-10.92,7.25-21.84,7.11-33.56l0,.06A64.68,64.68,0,0,0,322,199.43c-.25-1.09-.5-2.19-.76-3.29-.37-3.37-.5-6.79-1.16-10.11-1.35-6.74-1-13.93-5-20h0c.07-3.81-1.37-7.17-3.15-10.42l0,0a2.26,2.26,0,0,0-1.05-2.14l0,.05c0-1.17.07-2.38-1.07-3.17l0,.05-.21-3.13c1.93-.72,1.8,1.15,2.15,1.95,1.8,4.15,3.4,8.39,5.08,12.61.25.79.29,1.72,1.23,2.11l0,0C318.78,170,322.42,175.31,322.6,181.46Z"/><path class="cls-2" d="M253.88,320.19l11.33-5.66c18.74-12.87,36-27.22,47.35-47.44.81-1.44,1.19-3.27,3.74-4.5-1.53,7.08-6.19,11.75-9.15,17.26-6.29,7.11-12.24,14.52-19.4,20.82-12.67,11.13-26.09,21-42.3,26.46l-1.3-.91C246.81,323.26,251,322.79,253.88,320.19Z"/><path class="cls-5" d="M293.29,231.05c-.39,6.06-3.74,11.09-6,16.46C279.08,267.1,266,283,249.15,295.76c-5.8,4.41-12,8.51-20.4,9.54,2.4-3.81,6.16-4.13,8.92-5.63,24.22-13.19,39.08-34,49.1-58.94,1.4-3.49,2.49-7.16,4.84-10.21Z"/><path class="cls-5" d="M168.42,162c-1.76-2-3.78-1.32-5.65-.36-12.55,6.39-19.46,16.48-21.55,30.57-1.92,13,.82,24.74,6.39,36.2l0,0c-5.2-1.35-6.24-6.33-7.88-10.14-3.86-9-3.23-18.57-1.06-27.9a63.38,63.38,0,0,1,6.46-17.38c5.49-9.54,14-14.15,24.74-15.35,2.7-.3,3.41.78,2.72,3.21A5.91,5.91,0,0,1,168.42,162Z"/><path class="cls-2" d="M141,235.91c5.43,8,13.63,12.87,21.26,18.35-.43.45-.87.89-1.31,1.33-18.35-11.66-33.39-26.42-37.4-48.52-2.69-14.91,2.78-28.53,13.46-39.66a.55.55,0,0,0,.13.71c-2.71,4.61-5.46,9.18-7.74,14-8.17,17.49-4.85,33.29,6.69,47.91C137.67,232.05,138.63,234.61,141,235.91Z"/><path class="cls-5" d="M110.18,256.53c5.25,4.56,9.33,10.27,14.95,14.54,15.13,11.49,30.69,22.26,48,30.33,5.84,2.73,12.16,3.8,18.41,5,2.17.42,4.37.62,6.48,2.44-3.91,1.69-7.21-.35-10.56-.74-14.35-1.69-26-9.58-37.91-16.82-14.06-8.54-27.36-18.06-38.56-30.25-.81-.88-1.86-1.6-1.85-3A1.48,1.48,0,0,1,110.18,256.53Z"/><path class="cls-5" d="M173.58,147.14c3.43.93,7.17.38,10.41,2.2-.62,1.33-2.22.68-3.41,1.78,6.13,2.45,12.13,4.7,18,7.24s10.18,7.19,13.18,12.86C189.94,152.09,167,145.65,141.33,164c0-4.81,4.28-5.86,7.27-7.64,5.18-3.1,11.13-4.2,17.11-4.83,1.7-.17,3.4-.1,4.84-1.29-.31-1.24-2.31-1-2.21-2.52l4.23-.63Z"/><path class="cls-5" d="M304.23,209.64c2.47,4.66-.62,8.83-1.55,13-3.68,16.5-11.19,31.45-19.62,46a53,53,0,0,1-7,9.57c-1.08-4,1.12-6.43,2.75-8.78,6.71-9.69,12.43-19.85,16.26-31.05,2.52-7.37,3.49-15.07,5.33-22.58.29-1.18.23-2.43,1.53-3.06C304.68,213.13,302.62,210,304.23,209.64Z"/><path class="cls-5" d="M232.88,226.87c-4.61,9.11-12,15-21.56,18.15-11.07,3.67-22.41,3.09-33.65.82-5.43-1.09-10-4.19-13.75-8.75,3.7,1.69,7.34,3.51,11.11,5,16.67,6.77,32.35,5.53,46.92-5.69,4.34-3.34,6.26-8.58,10.33-12.05Z"/><path class="cls-2" d="M157,116.4c-.22-1.07-1.16-2.4,1.07-2.47,17.54-.53,34.62,1.22,50.31,10l-1.59,1.63C190.79,119,174.32,115.25,157,116.4Z"/><path class="cls-4" d="M161,255.59c.44-.44.88-.88,1.31-1.33,11.7,4.67,23.07,10.37,36,11.22l3.39.54c0,.63-.06,1.26-.08,1.89l-1.94.4-1,.08-2.09,0-1-.09c-11.15-1.21-21.37-5.25-31.34-10.12A6.91,6.91,0,0,1,161,255.59Z"/><path class="cls-4" d="M94.69,274.11l-1.3,1.29c-8.76-11.95-15-25-17.69-39.67l.35.05.35-.08c4,7.47,5.75,16,10.6,23Q90.85,266.41,94.69,274.11Z"/><path class="cls-4" d="M110.18,256.53a1.48,1.48,0,0,0-1.07,1.53q-4.11-5.22-8.21-10.46a.38.38,0,0,0-.5.23c.69-1.11-.05-1.91-.64-2.74a2.21,2.21,0,0,0-1-2.06q-1-2.13-2-4.25c-1.4-5.45-3.56-10.77-2.57-16.59l1.13,0C97.77,234.7,103,246,110.18,256.53Z"/><path class="cls-2" d="M232.88,226.87l-.6-2.48c6.24-10.34,8.07-21.76,8.25-33.58,0-1.36-.22-2.77.63-4l1.82,0c2.23,5-1.49,9.71-.53,14.62C240.22,210.29,238.5,219.32,232.88,226.87Z"/><path class="cls-4" d="M71.63,201.38q0,3.35-.1,6.69l0,0a41.41,41.41,0,0,1,.73,4.92c0,1.52-.63,2.24-2,.9l.12,0-.33-2.18c.08-.08.26-.2.24-.24a3.86,3.86,0,0,0-.32-.56c-.19-3.44-.39-6.88-.58-10.31l-.06-1c-1.08-12-.4-23.78,3.6-35.25.64,5.51-2.24,10.75-1.12,16.28l-1.08,10.2,0,3.64C71.06,196.75,71.34,199.06,71.63,201.38Z"/><path class="cls-1" d="M320.32,216c.14,11.72-3.5,22.64-7.11,33.56-.53,1.62-1.59,3.09-1.23,4.92l0,.06c-1.24.76-2.1,1.92-1.73,3.29.21.79,1.06-.13,1.62-.3l.15.11c-.61,3.76-1.56,7.32-5.25,9.35.09-.63.18-1.26.26-1.89.46-.43,1-1.16.43-1.51-.77-.45-.7.62-1,1L302.64,268c1.48-6.12,5.86-10.8,8.18-16.55,4.25-10.58,6.55-21.61,8.38-32.78C319.37,217.66,319.36,216.62,320.32,216Z"/><path class="cls-1" d="M134.64,97.91c.08,1.51-1.17,1.48-2.08,1.81-3.71,1.33-7.42,2.68-11.15,4-5.82,2-10.5,5.77-15.12,9.62-1.17,1-2.42,1.92-3.47.45s.79-2.09,1.58-2.76c8-6.85,17.61-10.63,27.24-14.37A2.24,2.24,0,0,1,134.64,97.91Z"/><path class="cls-2" d="M184.94,164c8.62,1.41,16.3,14.59,13.81,23.73a17.16,17.16,0,0,1-1.49,3.5c1-11.1-2.34-20-12.29-25.77Z"/><path class="cls-5" d="M143.49,207.75c-2.2-3.81-1.07-7.68-.22-11.56,1.69-7.78,3.66-15.46,9-21.68,1.37-1.59,2.5-3.67,5.58-3.64-10.73,10.21-12.38,23.27-12.43,36.84Z"/><path class="cls-2" d="M95.31,222.16l-1.13,0-1-.8c1.08-14.59-.86-29.36,2.44-43.83l1.83.27a176.51,176.51,0,0,0-2,36.6C95.5,217,95.35,219.58,95.31,222.16Z"/><path class="cls-4" d="M206.74,125.55l1.59-1.63c9.5,3.5,16.24,10,20.64,19l-1.31,1.34c-4.84-5.63-9.11-11.84-15.8-15.6C210.12,127.7,208.45,126.6,206.74,125.55Z"/><path class="cls-2" d="M194.58,210.83c-2.79.71-5.32,2.12-8.45,1.85-9.44-.81-12.87-7-8-16.44,1.06,4.06-1,8.32,2.58,10.91.87,3,3.13,2.75,5.46,2.35a21.21,21.21,0,0,0,8.4-.22C194.56,209.79,194.57,210.31,194.58,210.83Z"/><path class="cls-5" d="M97.45,177.83l-1.83-.27c-.12-13.11,6.27-23.9,12.41-34.78.29-.5,1.15-.69,1.74-1l.6.55C103.64,153.27,99,165,97.45,177.83Z"/><path class="cls-2" d="M304.23,209.64c-1.61.4.45,3.49-2.27,3.08.15-2.91.38-5.82.42-8.73,0-1.35.64-3.31-1.94-3.18v.13c3.2,1,2.32-1.67,2.46-3,.39-3.54.5-7.11.69-10.68.18-3.25,1.39-1,2.27-.42.28,6.25-.39,12.45-.92,18.66-.05.37-.09.74-.13,1.11Z"/><path class="cls-5" d="M87.25,148.35c-3.17,7.91-7.15,15.51-8.94,24-.61,2.87.56,6.38-2.62,8.48l-1.32.51a73.16,73.16,0,0,1,9.78-29.87c.77-1.29,1.13-3,3.09-3.11Z"/><path class="cls-5" d="M203.71,200.31c3-4.72,6.48-9.19,5.33-15.42-.37-2-.43-4.07-1.39-5.95-.4-.77-.75-1.69.31-2.17s1.53.21,2.14.92c2.88,3.41,3.69,11.28.74,15.51-1.86,2.68-2.06,7.43-7,7.22Z"/><path class="cls-4" d="M184.94,164l0,1.46c-7.15-2.25-14.31-1.13-21.82.88.79-3.75,3.7-3.09,5.27-4.33a5.91,5.91,0,0,0,4.13-1.11C176.85,161.26,181.51,160.19,184.94,164Z"/><path class="cls-5" d="M186.16,209.5c-2.33.4-4.59.65-5.46-2.35.18-1.91,1.31-2.87,3.12-2.61,7.17,1,13.51-1.67,19.89-4.23l.11.11c-3.57,5-9.45,5.33-14.58,7.15C188,208,186.44,207.63,186.16,209.5Z"/><path class="cls-4" d="M243,186.84l-1.82,0c-.84-1.33-.6-2.8-.56-4.24.08-.09.25-.21.23-.27a2.86,2.86,0,0,0-.33-.59c-.46-6-3.84-11.55-2.48-17.78C242.39,171,243.26,178.78,243,186.84Z"/><path class="cls-5" d="M194.58,210.83c0-.52,0-1,0-1.55,8.23-2.25,13.95-8.38,20.52-13.19l.21.16c-.13,4.58-4,6.12-6.9,8.35C204.29,207.74,200,210.64,194.58,210.83Z"/><path class="cls-2" d="M227.66,144.28l1.31-1.34c4.45,5.61,7,12.09,8.89,18.9H236.2Q231.93,153.07,227.66,144.28Z"/><path class="cls-2" d="M84.57,142q-4.75,10.17-9.52,20.35l-1.18-.54c1.4-8,6.56-14.45,10.28-21.48Z"/><path class="cls-2" d="M293.29,231.05l-1.68-.53q2-8.39,4-16.78l1.91.06A51.41,51.41,0,0,1,293.29,231.05Z"/><path class="cls-5" d="M245.92,204.28a1.63,1.63,0,0,1,1,2.06c-2,7-3.71,14.19-7.59,20.59-.46-.28-1-.57-1-.59,3.56-7,3.84-15.05,7.32-22Z"/><path class="cls-5" d="M302.64,268l3.79-3.43.56.46c-.08.63-.17,1.26-.26,1.89l0,0L305.58,269l-1.81,3.05-1.22,1.1,0,0c-1.65.94-2.32,2.62-3.14,4.19v0a13.71,13.71,0,0,0-5.21,6.25h0a5.6,5.6,0,0,0-3.13,3.13v0c-1.49.47-2.26,2.34-4.1,2.13a6.33,6.33,0,0,1,0-.87l1.3-1.22.79-.83c1.94-2,4.54-3.43,5.24-6.42h0l1.07-1.07,0,0,1.23-1.09.83-1,1.1-2.14,0,0,1.07-1.09,0,.05a3.66,3.66,0,0,0,2.11-3.15v0a1.91,1.91,0,0,0,1.05-2.09Z"/><path class="cls-2" d="M245.92,204.28l-.19,0c-.13-1-.26-1.91-.38-2.86.57-6.15-.11-12.42,1.71-18.45A43.29,43.29,0,0,1,245.92,204.28Z"/><path class="cls-1" d="M315.11,166c4,6.09,3.63,13.28,5,20,.66,3.32.79,6.74,1.16,10.11-2.29-2.67-2.1-6.16-2.75-9.28C317.08,180,316.21,173,315.11,166Z"/><path class="cls-1" d="M70.73,190.8l1.08-10.2L74,182.71l-.15,2c-1.11.72-1.1,1.44,0,2.18l.33,8.85-.36,3.62-2.13,2c-.29-2.32-.57-4.63-.86-6.94A4.48,4.48,0,0,0,70.73,190.8Z"/><path class="cls-2" d="M297.49,213.8l-1.91-.06q1.05-7.2,2.09-14.41l1.9-1.92c.29,1.18.57,2.35.86,3.53v-.13a3.06,3.06,0,0,1-.31.56l-.19,1.6-.75,4.7-.45,1.45C298.32,210.68,297.9,212.24,297.49,213.8Z"/><path class="cls-5" d="M199.66,171.17c5.34,3.93,6.71,11.8,2.64,18.23,1-6.39-1.05-12.23-2.75-18.13Z"/><path class="cls-5" d="M215.08,196.09c.11-7.47.95-15-3.5-23,5.91,4.24,7.34,17.15,3.71,23.18Z"/><path class="cls-5" d="M244.15,326.22l1.3.91c-7.1,3.64-14.83,4.86-22.6,5.94.2-.5.41-1,.61-1.49,0-.39,0-.77,0-1.15a42.23,42.23,0,0,0,14.4-2.36Z"/><path class="cls-5" d="M73.76,199.34l.36-3.61,2,.44c2.18,4.37-.69,9.39,1.76,13.73a3.75,3.75,0,0,0,0,.82v6.13l-.53.06c-.85-3.14-1.71-6.29-2.56-9.44C74.38,204.77,75.53,201.87,73.76,199.34Z"/><path class="cls-5" d="M292.85,107.85c-4.05-3.45-5.65-8.7-9.19-12.53.09-.36.17-.72.26-1.07,6.18,2,7.52,7.84,10.23,12.63Z"/><path class="cls-1" d="M77.87,209.9c-2.45-4.34.42-9.36-1.76-13.73-.54-4.48,1-9-.15-13.47,2.72.7,1.84,3,1.86,4.65C77.91,194.87,77.87,202.39,77.87,209.9Z"/><path class="cls-5" d="M148.21,217.57c2.63,4.48,4.89,9.19,8.27,13.25-5.76-2.43-8.42-7.19-9.94-12.83Z"/><path class="cls-2" d="M76.4,235.7l-.35.08-.35-.05c-2.46-4.91-3.32-10.21-3.78-15.6h1.29l.57,1C73.73,226.17,75.8,230.8,76.4,235.7Z"/><path class="cls-5" d="M272.47,81.75c.51-.93,1.38-1.24,2-.46,3.39,4.11,7.7,7.56,9.38,12.9-4.59-1-5.39-5.86-8.49-8.39l-.88-1,0,0c-.1-.83-.19-1.67-1-2.13l0,0-1.09-1.08Z"/><path class="cls-2" d="M76,182.7c1.18,4.48-.39,9,.15,13.47l-2-.44-.33-8.86c0-.73,0-1.45,0-2.18l.15-2c.14-.46.28-.93.41-1.4l1.32-.51Z"/><path class="cls-5" d="M87,135.63A29.38,29.38,0,0,1,96.1,122a42,42,0,0,1-8.58,14.1Z"/><path class="cls-2" d="M148.21,217.57l-1.67.42a45.72,45.72,0,0,1-3-10.24l2,0Z"/><path class="cls-2" d="M229.22,117.16c2.15-2.64,3.12.86,4.75.93l4.53,5.23A1.82,1.82,0,0,1,237,125Z"/><path class="cls-1" d="M322,199.43A64.68,64.68,0,0,1,320.29,216c0-4.11-.09-8.22,0-12.33C320.34,202.12,319.55,200.07,322,199.43Z"/><path class="cls-5" d="M134.07,182.68c-.62,3.93-1.69,7.7-4.2,10.94.32-4.05,1.1-7.93,4.18-11Z"/><path class="cls-1" d="M312,155.59c1.78,3.25,3.22,6.61,3.15,10.42C312.38,163,311.84,159.41,312,155.59Z"/><path class="cls-1" d="M294.31,279.45c-.7,3-3.3,4.43-5.24,6.42C289.6,282.73,291.56,280.77,294.31,279.45Z"/><path class="cls-5" d="M199.55,171.27c-1.63-1.13-3.33-2.21-3.85-5,3.07.59,4,2.33,4,4.87Z"/><path class="cls-5" d="M91.43,140c-.08,2.57-.82,4.8-3.12,6.25l0,0c.09-2.56.8-4.8,3.13-6.24Z"/><path class="cls-5" d="M137.16,168.12a.55.55,0,0,1-.13-.71c.94-1.79,2.05-3.36,4.33-3.48C140.32,165.69,139.9,168.07,137.16,168.12Z"/><path class="cls-5" d="M144.47,90.07a4.58,4.58,0,0,1,4.23-.5C147.53,91.74,146.06,91.47,144.47,90.07Z"/><path class="cls-4" d="M73.21,220.13H71.92a7.94,7.94,0,0,1-.56-1.44c-.17-.92-.93-2.28.34-2.63s.85,1.6,1.73,2.09C73.36,218.81,73.28,219.47,73.21,220.13Z"/><path class="cls-2" d="M225.58,42.33q2.23-2.49,3.19.72A3.81,3.81,0,0,1,225.58,42.33Z"/><path class="cls-1" d="M301.59,270.07a3.66,3.66,0,0,1-2.11,3.15A3,3,0,0,1,301.59,270.07Z"/><path class="cls-2" d="M236.09,46l-2,.24v0l-.6-.89a2.05,2.05,0,0,1,0-.78C234.87,44.21,235.77,44.56,236.09,46Z"/><path class="cls-5" d="M87.52,136.09a5.56,5.56,0,0,1-2,3.13,3.9,3.9,0,0,1-.63-.46A4.44,4.44,0,0,1,87,135.63Z"/><path class="cls-5" d="M95.56,132.73c.09-1,.22-2,1.34-2.4.08,0,.36.17.37.28.08,1.21-.82,1.67-1.69,2.14Z"/><path class="cls-5" d="M160.09,234.66c.66.11,1.41.15,1.53,1,0,.17-.4.59-.57.57-.86-.12-.92-.84-1-1.52Z"/><path class="cls-4" d="M236.2,161.84h1.66l.21,2.18C236,164.55,236.52,162.83,236.2,161.84Z"/><path class="cls-5" d="M138.22,91.12a1.65,1.65,0,0,1,2.16-.44C139.9,92,139.24,92.45,138.22,91.12Z"/><path class="cls-2" d="M230.28,43.49c1.36-.19,2.79-.6,3.51,1.16A4.93,4.93,0,0,1,230.28,43.49Z"/><path class="cls-1" d="M309.89,150.38c1.14.79,1.05,2,1.07,3.17C309.74,152.78,309.88,151.56,309.89,150.38Z"/><path class="cls-1" d="M309.71,147.3l.21,3.13c-1.23-.72-1.1-1.93-1.12-3.09l.07-.07Z"/><path class="cls-1" d="M73.21,220.13c.07-.66.15-1.32.22-2l1.34-.1,0,0c0,1.13.11,2.32-1,3.13Z"/><path class="cls-5" d="M84.57,142l-.42-1.67c.26-.53.52-1.07.77-1.6a4.53,4.53,0,0,0,.63.45C85.23,140.16,84.9,141.1,84.57,142Z"/><path class="cls-1" d="M233.54,45.37l.6.89c-.46,0-1.21.11-1.33-.11C232.45,45.51,233.17,45.54,233.54,45.37Z"/><path class="cls-1" d="M273.48,82.76c.86.46.95,1.3,1,2.13A2.06,2.06,0,0,1,273.48,82.76Z"/><path class="cls-5" d="M160,234.72l-1.3-.43.26-.38,1.09.75Z"/><path class="cls-5" d="M92.46,138a2.19,2.19,0,0,1-1,2.08l0,0a2.22,2.22,0,0,1,1-2.07Z"/><path class="cls-5" d="M87.24,148.33a2.13,2.13,0,0,1,1-2.09l0,0a2.25,2.25,0,0,1-1.06,2.07Z"/><path class="cls-1" d="M310.94,153.5a2.26,2.26,0,0,1,1.05,2.14A2.18,2.18,0,0,1,310.94,153.5Z"/><path class="cls-1" d="M298.48,274.22l-1.1,2.14A2.18,2.18,0,0,1,298.48,274.22Z"/><path class="cls-2" d="M292.93,182.65a1.16,1.16,0,0,1-.09-2Z"/><path class="cls-1" d="M302.63,268a1.91,1.91,0,0,1-1.05,2.09A2,2,0,0,1,302.63,268Z"/><path class="cls-2" d="M240.5,181.71a2.86,2.86,0,0,1,.33.59c0,.06-.15.18-.23.27A.66.66,0,0,1,240.5,181.71Z"/><path class="cls-5" d="M134.05,182.66l.23-.43-.21.45Z"/><path class="cls-2" d="M70.38,213.85l-.12,0,.38.2Z"/><path class="cls-2" d="M70,210.87a3.86,3.86,0,0,1,.32.56s-.16.16-.24.24A.55.55,0,0,1,70,210.87Z"/><polygon class="cls-2" points="71.56 208.05 71.53 208.06 71.64 208.18 71.56 208.05"/><path class="cls-5" d="M304.8,206.64c0-.37.08-.74.13-1.11a4,4,0,0,1,.24.82C305.18,206.43,304.93,206.54,304.8,206.64Z"/><path class="cls-2" d="M299.94,203c.06-.54.13-1.07.19-1.6Z"/><path class="cls-5" d="M223.56,51.53a1.15,1.15,0,0,1-1.33-.86Z"/><path class="cls-1" d="M274.5,84.85l.88,1Z"/><path class="cls-2" d="M69.33,199.57l.06,1a3.79,3.79,0,0,1-.26-.68C69.11,199.79,69.26,199.67,69.33,199.57Z"/><path class="cls-1" d="M272.42,81.72l1.09,1.08Z"/><path class="cls-1" d="M296.55,277.33l-1.23,1.09Z"/><path class="cls-1" d="M295.35,278.39l-1.07,1.07Z"/><path class="cls-1" d="M299.51,273.17l-1.07,1.09Z"/><path class="cls-1" d="M288.28,286.7l-1.3,1.22Z"/><path class="cls-5" d="M287,288.81c-.32.87-.61.86-.88,0C286.4,288.78,286.7,288.79,287,288.81Z"/><path class="cls-5" d="M95.58,132.75l-.24.42.22-.44Z"/><path class="cls-5" d="M100.79,253.4l.41.26-.45-.22Z"/><path class="cls-5" d="M92.44,137.93l.24-.42-.22.44Z"/><path class="cls-5" d="M147.61,228.43l.42.24-.46-.2Z"/><path class="cls-2" d="M62,310.67l-.27.32c-.07-.13-.2-.26-.19-.38s.17-.21.26-.32Z"/><path class="cls-2" d="M60.2,307.51l.39.23-.39-.23Z"/><path class="cls-2" d="M77.9,327.26l.39.25-.42-.21Z"/><path class="cls-2" d="M225.6,100.5a4.34,4.34,0,0,1-.51,0c-1.6-.17-3.56.39-4.12-1.9-.06-.26.49-.92.85-1,2.29-.47,3.53.58,3.81,2.86Z"/><path class="cls-2" d="M181.92,85.92c-2.77-.4-5.76,1-8.32-1l0,0c2.77.4,5.76-1,8.33,1Z"/><path class="cls-2" d="M181.91,85.92c1,0,2,0,3,0a1.17,1.17,0,0,1,.92.53c-1.34.43-2.68.87-3.89-.57Z"/><path class="cls-2" d="M232.43,105.43c-.12.27-.24.54-.35.81-.27-.12-.69-.18-.77-.38s.18-.52.3-.79Z"/><path class="cls-2" d="M216.49,96.94c-.27-.12-.68-.17-.76-.37s.19-.52.3-.79c.27.12.69.17.77.37S216.61,96.67,216.49,96.94Z"/><path class="cls-5" d="M244.39,124.38a1.67,1.67,0,0,1-1.25-1.56A1.43,1.43,0,0,1,244.39,124.38Z"/><path class="cls-2" d="M225.63,100.47l.39.25-.42-.22Z"/><path class="cls-5" d="M239.17,118.15l-1-1.08A1,1,0,0,1,239.17,118.15Z"/><path class="cls-5" d="M198.57,268.39l1-.08C199.3,268.78,199,268.83,198.57,268.39Z"/><path class="cls-5" d="M195.43,268.27l1,.09C196.08,268.81,195.74,268.73,195.43,268.27Z"/><path class="cls-2" d="M126.3,262.48c-2.89-.73-4.12-2.79-5.73-4.9C124.13,257.88,124.41,258.12,126.3,262.48Z"/><path class="cls-2" d="M131.53,265.28c-.7.18-1.18.46-1.48.33s-.45-.68-.67-1c.28-.13.64-.44.83-.36A7.57,7.57,0,0,1,131.53,265.28Z"/><path class="cls-2" d="M177.72,294.75l-.32-.27c.12-.07.26-.19.37-.18s.22.16.33.25Z"/><path class="cls-4" d="M316.81,147.23c4.45,9.68,8.51,19.47,9.3,30.26h-1.24c-2.75-4.12-2-9.41-4.61-13.59l-4.84-16.63Z"/><path class="cls-2" d="M324.87,177.48h1.24c2.52,5.28,1.11,11.32,3.25,16.67q.08,10.85.16,21.69l-1.69-.35a78.15,78.15,0,0,0-3.05-36Z"/><path class="cls-5" d="M327.83,215.5l1.69.35c.12.67.23,1.34.35,2-1.77,6.4-1.09,13.18-3.1,19.55-.41,1.3-.49,2.69-1.75,3.53l-1.59,0A200.41,200.41,0,0,0,327.83,215.5Z"/><path class="cls-1" d="M324.87,177.48l-.09,2-2.18,2c-.18-6.16-3.82-11.43-4.45-17.47l2.11-.11C322.84,168.07,322.12,173.36,324.87,177.48Z"/><path class="cls-2" d="M323.43,240.9l1.59,0a30,30,0,0,1-7.09,16.1Q320.67,249,323.43,240.9Z"/><path class="cls-1" d="M329.87,217.85c-.12-.66-.23-1.33-.35-2q-.07-10.84-.16-21.69c2.45,2.27,1.26,5.23,1.21,7.82C330.46,207.27,331.6,212.64,329.87,217.85Z"/><path class="cls-5" d="M309.23,131.39l3.77,5.54c.34,1.53.69,3.07,1,4.6-.12.52-.23,1.05-.35,1.57-2.37-3.44-3.36-7.49-5.08-11.23Z"/><path class="cls-1" d="M312,254.43c2.57-.79,2.32-3.82,4.14-5.21-.66,3.15-.33,6.79-4.14,8.37l-.15-.11c0-1,.07-2,.11-3Z"/><path class="cls-1" d="M294.24,283.56a13.71,13.71,0,0,1,5.21-6.25C299.46,280.85,297.6,282.82,294.24,283.56Z"/><path class="cls-1" d="M317.11,247.17c.5-3,1.09-5.95,3.15-8.36C320.16,242,320.1,245.11,317.11,247.17Z"/><path class="cls-2" d="M313.68,143.1c.12-.52.23-1,.35-1.57a14.56,14.56,0,0,1,2.78,5.71l-1.39,0Z"/><path class="cls-1" d="M299.44,277.33c.82-1.57,1.49-3.25,3.14-4.19C302.28,275.1,301.93,277,299.44,277.33Z"/><path class="cls-1" d="M291.12,286.68a5.6,5.6,0,0,1,3.13-3.13A2.84,2.84,0,0,1,291.12,286.68Z"/><path class="cls-1" d="M320.23,238.86c.09-1.48-.3-3.07,1.08-4.21C321.23,236.12,321.73,237.75,320.23,238.86Z"/><path class="cls-1" d="M321.28,234.7l.21-3C322.69,232.78,322.51,233.78,321.28,234.7Z"/><path class="cls-1" d="M316.09,249.27a2.44,2.44,0,0,1,1.05-2.14A2.09,2.09,0,0,1,316.09,249.27Z"/><path class="cls-1" d="M305.58,269l1.18-2.12A2.13,2.13,0,0,1,305.58,269Z"/><path class="cls-2" d="M327.5,161.85a2.25,2.25,0,0,1,.83,2.64C328.05,163.61,327.77,162.73,327.5,161.85Z"/><path class="cls-1" d="M302.55,273.18l1.22-1.1Z"/><path class="cls-2" d="M261.72,56.44c4,2.35,7.4,5.28,9.43,9.59C266.84,64.06,264.39,60.15,261.72,56.44Z"/><path class="cls-2" d="M248.47,52.73l-3.71-3,2.65-.18C247.76,50.63,248.11,51.68,248.47,52.73Z"/><path class="cls-2" d="M262.05,63a3.52,3.52,0,0,1-2.24-2A1.91,1.91,0,0,1,262.05,63Z"/><path class="cls-2" d="M256.29,58.47a1.77,1.77,0,0,1-2-1.51C255.36,56.88,256.38,56.93,256.29,58.47Z"/><path class="cls-2" d="M263.23,64.05l-1.17-1C262.62,63.17,263.8,62.63,263.23,64.05Z"/><path class="cls-2" d="M271.41,72.42l-1-1.11C271,71.51,272.27,71,271.41,72.42Z"/><path class="cls-2" d="M257.7,59.34l-1.35-.91C257.13,58.23,257.54,58.6,257.7,59.34Z"/><path class="cls-2" d="M173.58,147.14l-1-.09C173,146.58,173.29,146.64,173.58,147.14Z"/><path class="cls-3" d="M109.77,141.76c-.59.33-1.45.52-1.74,1-6.14,10.88-12.53,21.67-12.41,34.78-3.3,14.47-1.36,29.24-2.44,43.83-.36,1-.72,1.92-1.11,2.93-2-1.28-1.62-3.3-1.65-5.14-.35-18.8,0-37.54,4.2-56,4.62-20.46,17.55-34.19,35.51-43.81,1.46-.77,3.31-.8,5-1.17l0,0c-4.31,3.19-8.88,6.09-12.86,9.65C117.58,132,112.07,135.47,109.77,141.76Z"/><path class="cls-3" d="M96.75,238.78q1,2.11,2,4.25C96.45,242.37,94.79,241.43,96.75,238.78Z"/><path class="cls-3" d="M99.76,245.09c.59.83,1.33,1.63.64,2.74a1.74,1.74,0,0,1-2.3-1.37C97.87,245.27,98.94,245.24,99.76,245.09Z"/><path class="cls-3" d="M135.11,118.19l.21-.41c-.08.13-.16.25-.23.38Z"/><path class="cls-3" d="M244.15,326.22l-6.24,1.85c-5.33-1.17-10.18,1.48-15.3,1.94a2.78,2.78,0,0,0,.41.29,2.72,2.72,0,0,0,.49.13c0,.38,0,.76,0,1.15-12.57.91-25.14,1.67-37.62-1a24.23,24.23,0,0,1-2.42-.77c2.39-1.9,5.22-1.78,7.92-1.4a103.83,103.83,0,0,0,58.75-8.54,3.56,3.56,0,0,1,3.79.31C251,322.79,246.81,323.26,244.15,326.22Z"/><path class="cls-3" d="M73.78,221.16c1.08-.81.93-2,1-3.13,2.07,3.77,3,7.92,3.87,12.05,1.78,8.42,5.65,16.1,8.51,24.13.54,1.52,2,3.07-.13,4.52-4.85-7.07-6.62-15.56-10.6-23C75.8,230.8,73.73,226.17,73.78,221.16Z"/><path class="cls-3" d="M272.39,90.12a2.87,2.87,0,0,1,2,3.23C272.56,93,272.33,91.63,272.39,90.12Z"/><path class="cls-2" d="M292.85,107.85l1.3-1q2.73,4.09,5.45,8.19l-2.2,1.06Q295.12,112,292.85,107.85Z"/><path class="cls-5" d="M297.4,116.13l2.2-1.06c2.37,2.74,4.36,5.68,5,9.32C301.07,122.66,299.2,119.43,297.4,116.13Z"/><path class="cls-5" d="M307.17,128.26a5.84,5.84,0,0,1,2.06,3.13l-.63.48a4.94,4.94,0,0,1-2-3.17Z"/><path class="cls-5" d="M304.65,126.51c0-.69,0-1.38,0-2.07,1,.2,1.15,1,1.32,1.78l-.56.53A3.86,3.86,0,0,0,304.65,126.51Z"/><path class="cls-5" d="M306,126.22l1.16,2.05-.59.43c-.37-.65-.75-1.3-1.13-1.95Z"/><path class="cls-3" d="M305.45,126.75c.38.65.76,1.3,1.13,1.95a4.94,4.94,0,0,0,2,3.17c1.72,3.74,2.71,7.79,5.08,11.23l1.74,4.16,4.84,16.63-2.11.11,0,0c0-.95-.19-1.77-1.23-2.11-1.68-4.22-3.28-8.46-5.08-12.61-.35-.8-.22-2.67-2.15-1.95l-.84,0c1-6.12,0-11.25-6.21-14.44-2.27-1.17-.49-3.8-.76-5.71s1.82-.14,2.75-.61A3.86,3.86,0,0,1,305.45,126.75Z"/><path class="cls-1" d="M316.94,161.86c1,.34,1.25,1.16,1.23,2.11C317.23,163.58,317.19,162.65,316.94,161.86Z"/><path class="cls-2" d="M70.73,190.8a4.48,4.48,0,0,1,0,3.64C70.76,193.23,70.75,192,70.73,190.8Z"/><path class="cls-5" d="M311.94,254.49c0,1-.07,2-.11,3-.56.17-1.41,1.09-1.62.3C309.84,256.41,310.7,255.25,311.94,254.49Z"/><path class="cls-5" d="M306.43,264.59c.29-.43.22-1.5,1-1,.61.35,0,1.08-.43,1.51Z"/><path class="cls-3" d="M73.81,184.69c0,.73,0,1.45,0,2.18C72.71,186.13,72.7,185.41,73.81,184.69Z"/><path class="cls-1" d="M223.51,330.43a2.72,2.72,0,0,1-.49-.13,2.78,2.78,0,0,1-.41-.29c5.12-.46,10-3.11,15.3-1.94A42.23,42.23,0,0,1,223.51,330.43Z"/></g></svg>