<svg id="Layer_1" data-name="Layer 1" xmlns="http://www.w3.org/2000/svg" viewBox="0 0 400 400"><defs><style>.cls-1{fill:#c7b197;stroke:#c7b197;stroke-miterlimit:10;stroke-width:6.41px;opacity:0.7;}</style></defs><title>glazesArtboard 11</title><path class="cls-1" d="M349.71,289.38a69.84,69.84,0,0,1,3,8.58c.32,1.2.55,2.09.78,3.38a52.41,52.41,0,0,0,1.24,7.11c1.91,6.88,3.95,7.3,3.94,11.44,0,.39-.11,7.47-4.68,9.61-4,1.85-9.74-.78-12-4.66-2.86-4.9,1.23-9.39,1.73-18.19.32-5.79-1.29-6.71-5.47-20.5-6.41-21.15-9.61-31.73-10-40.53-.13-3.31-.06-7.54-3-11-3.55-4.19-8.28-3.37-10.59-7.54-1.15-2.08-.91-4-.1-9.56,2.3-15.78,2.69-17.72,2.69-17.72.63-2.79,1.53-7,2.46-12.19.74-4.15,1.12-6.23,1.17-7.45.34-8-6.46-11.73-12.15-19-5.51-7-10.18-19.08-6.74-41.14a2.48,2.48,0,0,0-4-2.3,4.65,4.65,0,0,0-1.62,4.07c.24,11.81-7.13,17-14.85,34.38-1.44,3.22-4.92,17.43-11.81,45.72-4.44,18.18-6.66,27.33-7.22,30.44-4.27,23.83-1.37,25.84-6.3,36.36-4.07,8.7-9.07,13.78-9.67,23.76-.27,4.51.67,4.85.3,11.1-.38,6.46-1.48,7.88-4,19.95-2.23,10.68-2.17,13.43-4.16,14.4-2.88,1.41-7.72-2-9.14-6.64s1.45-6.74,1.76-13.38c.33-7.16-2.78-8.31-4.74-17.65-1.53-7.32.13-7.8-.79-17.91-.82-9-2.24-9.77-4.89-23.19-1.43-7.26-2.09-12.48-3.34-22.44-2.41-19.06-1.23-17.95-2.83-25.47-3.05-14.39-6.58-14.76-7.87-26.84-.93-8.78.94-8.51.5-20.57-.4-11.3-2.34-19.75-4.6-29.63-1.39-6.06-2.73-10.76-5.41-20.16-5.67-19.87-6.86-20.71-6.34-26.09.35-3.55,1.44-9,.32-16.27-.22-1.4-1.05-6.78-2.46-6.68-1,.07-1.87,2.65-2.59,5.31-3,11.21-2.7,22.92-2.66,25,.39,18.38-7.29,19.88-8.64,45.08-.41,7.73.25,8.69-.65,15-1.64,11.53-5,16.22-7.46,27-1.52,6.59-.89,7.45-2.13,22a364,364,0,0,1-5.81,43.17c-3.69,17.94-5.51,17.21-7.22,30.44-1.06,8.22-1,13.8-3.76,23.35-2.55,8.94-3.69,8-5.8,15.8-1.42,5.28-4.45,16.54-2.84,29.28.58,4.61,1.69,8.75-.22,14.13-.23.66-2.55,7-5.42,7.22-3.78.27-6.27-10.24-7.57-15.74a39.84,39.84,0,0,1-1.51-10.59c.08-6.7,2-8.87,2.2-14.27.06-1.84-.09-3.5-3.72-13.86-5-14.2-6.83-17.18-8-24.69-.89-5.89.08-5.13-.73-10.22-1.86-11.63-6.76-14.38-12.92-28.2a95.54,95.54,0,0,1-5.94-17.13c-2.89-11.91-1-14.08-3.59-25.85-1.62-7.25-2.17-5.61-7.29-22.17-4-13-3.32-12.87-5.5-18-5.06-11.93-8.15-11.16-9-18.63-.61-5.26.54-9-1.22-17-.37-1.67-1.5-6.87-2.46-6.67-1.2.25-1,8.62-2.23,24.1-.62,7.76-1.32,13.75-2,19.82C60.76,179.94,60,183.83,59,194.52c-.26,2.77-.6,6.63-.91,11.1-.95,13.64-.46,16-1,24.1-1.57,23.18-7.25,28.76-4,37.49a20.85,20.85,0,0,1,1.51,10.59,19,19,0,0,1-2.68,7.46c-1.33,2.13-3,4.89-5.33,5.07-2.78.21-5.22-3.49-5.2-6.92,0-3,1.9-4.12,3.88-8,2.52-4.91,1.66-7.41,3.24-20.33.69-5.6,1-6.11,1.67-11.24,1.9-13.88,1-18.38,2.11-39.49.69-12.64,1-19,2.22-24.11,1.58-6.81,3.25-10.33,4.35-18.69a63,63,0,0,0,.65-15c-.92-10.24-4.11-10.77-3.53-18.15.12-1.48.82-10.49,6.57-15.42,3.28-2.81,5.08-1.62,8.06-4.83,3.75-4,2.54-7.68,6-10.24,2.7-2,6.9-2.35,8.65-.17,1.91,2.38.25,6.89-.37,8.58-1.84,5-4.36,5.4-6.72,9.87s-2.28,8.69-2.19,14.27a47.11,47.11,0,0,0,2.52,14.37c4,12,8.6,11,11.66,21,2.08,6.82.08,7.63,2.33,18.66,1.25,6.12,2,6.71,5.17,16.76,5.88,18.88,4.13,20.11,8.21,28.09,4.3,8.43,6.72,8,8.77,15.23,1.88,6.65.16,8.18,1.56,18.29a85.62,85.62,0,0,0,5.41,20.16c4.41,11.09,6.64,9.82,7.91,17,1.14,6.44-.33,9.36,1.56,18.28.48,2.3,2.08,9.85,3.91,9.58.75-.12,1.52-1.56,3.63-11.38,2-9.3,3.06-16,3.06-16,1.74-11.17,1.42-11.84,2.81-19.44.81-4.45,1-4.54,3-13.89,1.08-5.11,2.53-11.9,4-20,4.19-22.75,1.2-14.85,3.43-24.62.83-3.64,1.94-7.82,0-9.84s-5.74-.08-7.36-2.49c-1.42-2.14.07-5.89.28-6.44,2-5.13,6.52-5.39,7.49-9.49a6.79,6.79,0,0,0-1.69-6.3c-3.19-2.81-8.23,1.75-11-1-2.18-2.17-1-7.16-.83-8.08.36-1.56.78-3.4,2.16-4.42,1.83-1.36,3.54.07,6.68,0,3.89-.12,7-2.49,8.4-3.57,4.54-3.47,6.36-8.35,7.58-11.64a37.18,37.18,0,0,0,2.19-14.26c-.12-7.38-2-7.54-1.41-12.74.72-6.23,3.49-6.67,4.94-14,1.19-6.1-.59-6.43.55-12.87s3.05-6.72,4.94-14c1.7-6.57.32-7,1.85-15.53,1.9-10.67,4.12-10.56,3.82-15.66-.45-7.82-5.7-8.6-5.93-17.13,0-.63-.17-8.63,3.2-10.49,3.14-1.73,8.76,2.16,10.69,7.4,2,5.45-1.35,8.63,1,13.62,2.09,4.51,5.56,3.49,6.73,7.67,1.14,4-1.79,6-2.09,12.12-.21,4.22,1.09,4.88,3.72,13.86A77.8,77.8,0,0,1,204.07,102c.85,8.43-1.23,8.95-.74,17.16a56.76,56.76,0,0,0,5.41,20.16c3.56,8.17,4.86,6.85,6.89,13.22,2.68,8.4,1.65,14.55,4.83,15.49,2,.61,4.68-1.22,6-2.55,2.86-2.86,2.12-6,4.66-7.59,1.8-1.13,4.38-.93,5.48.48,1.56,2-.22,6.09-1.15,8.21-3,6.77-6.25,7.26-10.41,13.54a36.3,36.3,0,0,0-4.81,29.42c1.63,7.62,3.51,8.37,6.7,17.51a68.87,68.87,0,0,1,4.31,18.52c.62,8.36-1.28,7.76-1.18,18.05.06,6.14,1.49,12.83,4.36,26.22.6,2.79,1.5,6.84,2.46,6.68.75-.13,1-2.76,1.82-5.69,1.55-5.78,4.1-9.07,6-12.39,3.13-5.36,4.54-11.87,7.37-24.88,1.21-5.56,2-10.78,3.67-21.21,2.8-17.77,2.69-20.71,5.49-26.9,2.47-5.46,4-6.4,6-12.39,2.08-6.15,1.35-7.84,3.05-16,2-9.8,3.63-10.08,5.55-19.2.75-3.54,1.15-8.25,1.95-17.67,1.4-16.51.84-18.49,3-23.73,1.18-2.87,1.66-3,5.6-11.5s4.26-10,4.41-11c1.15-7.62-2.89-11.45-1-13.62,1.4-1.59,6.34.37,9.33,2.36a20.56,20.56,0,0,1,6.89,8.24c3.45,6.73,4,12.13,4.95,16.69,3.43,17.17,10.14,16.49,10.81,29.05.5,9.35-3.15,10.93-1.23,19.61,1.55,7,4.11,6.76,6.84,15.23A56.48,56.48,0,0,1,329.62,194c-.66,8-2.16,7.75-2.24,14.36-.05,3.81-.15,12.15,4.5,20s9.32,7.56,10.18,13.28-3.53,7.17-3.21,13.9c.26,5.46,3.18,5.32,6.35,13.8C348.57,278.34,346.59,282,349.71,289.38Z"/></svg>