<svg id="Layer_1" data-name="Layer 1" xmlns="http://www.w3.org/2000/svg" xmlns:xlink="http://www.w3.org/1999/xlink" viewBox="0 0 400 400"><defs><style>.cls-1{stroke:#b2b2b2;stroke-miterlimit:10;stroke-width:1.07px;fill:url(#radial-gradient);}</style><radialGradient id="radial-gradient" cx="200" cy="200" r="172.36" gradientUnits="userSpaceOnUse"><stop offset="0" stop-color="#fff"/><stop offset="0.28" stop-color="#d8d8d8"/><stop offset="0.53" stop-color="#fff"/><stop offset="0.8" stop-color="#cecece"/></radialGradient></defs><title>glazesArtboard 10</title><path class="cls-1" d="M356.92,199.2a70.07,70.07,0,0,1,6.41,6.41c.81.94,1.41,1.65,2.18,2.7a51.1,51.1,0,0,0,4.24,5.85c4.73,5.35,6.75,4.83,8.55,8.55.17.36,3.17,6.77,0,10.69-2.76,3.41-9.09,3.57-12.83,1.07-4.71-3.15-3-9-6.41-17.1-2.25-5.35-4.1-5.47-13.9-16-15-16.2-22.54-24.3-26.72-32.06-1.57-2.92-3.36-6.74-7.49-8.55-5-2.21-8.91.6-12.82-2.14-1.95-1.37-2.56-3.16-4.28-8.55-4.85-15.19-5.34-17.11-5.34-17.11-.66-2.78-1.7-7-3.14-12a74.92,74.92,0,0,0-2.21-7.21c-3.22-7.38-10.94-7.72-19.24-11.76-8-3.91-17.52-12.69-24.09-34a2.48,2.48,0,0,0-4.63-.3,4.65,4.65,0,0,0,.33,4.37c5.38,10.51,1.05,18.44,1.71,37.41.12,3.52,3.22,17.82,9.42,46.28,4,18.28,6,27.48,6.85,30.52,6.6,23.29,10.09,23.82,10.27,35.44.15,9.6-2.12,16.37,1.71,25.6,1.73,4.17,2.73,4.07,5.14,9.85,2.49,6,2.12,7.73,5.13,19.69,2.68,10.57,3.93,13,2.57,14.76-2,2.53-7.82,1.56-11.13-2s-1.64-6.69-4.28-12.8c-2.84-6.58-6.13-6.25-12-13.79-4.59-5.91-3.31-7.07-8.56-15.75-4.68-7.72-6.3-7.81-14.56-18.71-4.47-5.9-7.34-10.3-12.84-18.7-10.51-16.08-9-15.6-13.7-21.66-9.05-11.6-12.38-10.38-18.83-20.68-4.69-7.48-2.89-8.05-8.56-18.71-5.32-10-10.76-16.72-17.13-24.61-3.9-4.84-7.17-8.48-13.69-15.75C129.27,93,127.83,92.77,125.94,87.71c-1.24-3.34-2.65-8.73-6.85-14.77-.8-1.16-3.91-5.63-5.13-4.92-.84.48-.52,3.19,0,5.91,2.16,11.4,7.61,21.78,8.56,23.63,8.41,16.35,2.15,21,12,44.3,3,7.13,4,7.7,6,13.79,3.57,11.08,2.64,16.76,5.13,27.56,1.52,6.59,2.47,7.09,7.71,20.68A361.07,361.07,0,0,1,167,245.24c4.54,17.75,2.58,17.88,6.85,30.52,2.64,7.85,5.11,12.87,6.85,22.65,1.62,9.15.18,8.78,1.71,16.73,1,5.37,3.24,16.83,10.27,27.57,2.54,3.89,5.36,7.13,6,12.8.08.69.78,7.41-1.71,8.86-3.28,1.91-10.12-6.45-13.7-10.83a39.75,39.75,0,0,1-6-8.86c-2.87-6.05-2.09-8.85-4.28-13.78-.75-1.69-1.62-3.11-9.42-10.83-10.69-10.59-13.66-12.46-18-18.71-3.38-4.9-2.18-4.65-5.13-8.86-6.77-9.64-12.38-10-24-19.69A96.83,96.83,0,0,1,103.68,260c-7.81-9.44-7-12.24-14.55-21.66-4.64-5.81-4.41-4.09-16.27-16.74-9.3-9.92-8.62-10.11-12.84-13.78-9.77-8.52-12.21-6.46-16.26-12.8-2.86-4.46-3.45-8.29-8.57-14.77-1-1.34-4.36-5.52-5.13-4.92-1,.74,2.89,8.18,8.56,22.64,2.84,7.24,4.83,12.94,6.85,18.71,3.76,10.74,4.79,14.56,8.56,24.61,1,2.61,2.36,6.22,4,10.39,5.12,12.67,6.59,14.55,9.66,22.1,8.74,21.52,6.08,29,12.84,35.45a20.81,20.81,0,0,1,6,8.86,19.05,19.05,0,0,1,.86,7.87c-.26,2.5-.6,5.74-2.57,6.9-2.4,1.41-6.22-.86-7.71-3.94-1.3-2.71-.09-4.54,0-8.86.12-5.52-1.75-7.39-6-19.69-1.84-5.34-1.81-5.92-3.42-10.83-4.38-13.32-7.2-16.95-15.41-36.43-4.92-11.66-7.38-17.49-8.56-22.65-1.57-6.81-1.61-10.7-4.28-18.7a63.93,63.93,0,0,0-6-13.79c-5.32-8.8-8.41-7.88-11.13-14.77-.54-1.37-3.86-9.79-.85-16.73,1.71-4,3.86-3.69,5.13-7.88,1.6-5.27-1.08-8,.86-11.82,1.53-3,5.17-5.12,7.7-3.93,2.76,1.29,3.25,6.08,3.43,7.87.54,5.31-1.55,6.76-1.71,11.82s1.75,8.8,4.28,13.78a47.06,47.06,0,0,0,8.56,11.82c8.85,9,12.53,6.08,19.69,13.78,4.85,5.22,3.41,6.83,10.27,15.75,3.81,5,4.78,5.14,12,12.8,13.56,14.4,12.53,16.27,19.69,21.66,7.56,5.69,9.55,4.24,14.55,9.85,4.61,5.15,3.73,7.28,9.42,15.75a85.21,85.21,0,0,0,13.7,15.75c8.82,8,10.27,5.93,14.55,11.82,3.85,5.29,3.81,8.55,9.42,15.75,1.44,1.85,6.19,7.94,7.71,6.89.62-.43.68-2.06-1.72-11.81-2.27-9.24-4.28-15.75-4.28-15.75-3.33-10.81-3.9-11.27-6-18.71-1.22-4.36-1.11-4.51-3.43-13.78-1.26-5.07-2.94-11.81-5.13-19.7-6.2-22.28-5.42-13.87-7.71-23.63-.85-3.63-1.68-7.88-4.28-8.86s-5.2,2.45-7.7,1c-2.22-1.3-2.53-5.32-2.57-5.91-.42-5.51,3.5-7.7,2.57-11.81a6.79,6.79,0,0,0-4.28-4.93c-4.1-1.12-6.64,5.18-10.28,3.94-2.91-1-4.06-6-4.28-6.89-.36-1.57-.79-3.4,0-4.92,1-2,3.22-1.5,6-3,3.44-1.81,5.19-5.3,6-6.89,2.56-5.11,2-10.29,1.71-13.78a37.49,37.49,0,0,0-4.28-13.79c-3.35-6.57-5.11-5.89-6.85-10.83-2.09-5.91.21-7.52-1.71-14.76-1.6-6-3.35-5.53-5.14-11.82s-.21-7.38-1.71-14.77c-1.35-6.65-2.75-6.39-5.14-14.77-3-10.42-.92-11.29-3.42-15.75-3.84-6.83-8.89-5.23-12.84-12.8-.3-.56-3.93-7.68-1.72-10.83,2.07-2.93,8.82-1.89,12.85,2,4.19,4,2.57,8.34,6.85,11.82,3.86,3.13,6.52.7,9.41,3.93s1,6.14,3.43,11.82c1.66,3.88,3.12,3.91,9.41,10.83a77.75,77.75,0,0,1,9.42,11.81c4.46,7.22,2.81,8.59,6.85,15.76,4.42,7.83,10,12.58,13.7,15.75,6.78,5.78,7.37,4,12,8.86,6.1,6.38,7.86,12.36,11.13,11.81,2.09-.34,3.68-3.14,4.28-4.92,1.32-3.82-.72-6.32.86-8.86,1.12-1.8,3.53-2.76,5.14-2,2.29,1.13,2.47,5.57,2.57,7.88.3,7.39-2.45,9.27-3.43,16.74a36.27,36.27,0,0,0,8.56,28.55c4.81,6.13,6.82,6,13.7,12.8a68.74,68.74,0,0,1,12,14.77c4.22,7.23,2.25,7.53,6.85,16.73,2.74,5.49,7,10.88,15.41,21.66,1.75,2.25,4.34,5.49,5.13,4.93.62-.45-.28-2.94-.85-5.91-1.14-5.88-.29-10,0-13.79.46-6.19-1.12-12.66-4.28-25.59-1.36-5.53-2.9-10.58-6-20.68-5.27-17.19-6.65-19.79-6.85-26.58-.17-6,.81-7.52,0-13.79-.82-6.44-2.21-7.64-4.28-15.75-2.47-9.7-1.15-10.65-3.42-19.69-.88-3.51-2.59-7.92-6-16.74-6-15.46-7.35-17-7.71-22.64-.2-3.1.16-3.47,0-12.8s-.56-10.88-.86-11.82c-2.3-7.35-7.61-9-6.84-11.81.56-2,5.86-2.44,9.41-2a20.53,20.53,0,0,1,9.81,4.39c6,4.54,8.95,9.14,11.76,12.83C253.15,66.69,258.88,63.13,265,74.13c4.54,8.18,2,11.21,7.48,18.17,4.48,5.64,6.66,4.28,12.83,10.69a56.82,56.82,0,0,1,11.76,19.24c2.93,7.52,1.45,7.92,4.27,13.9,1.63,3.44,5.19,11,12.83,16s11.69,2.72,15,7.49,0,8,3.2,13.89c2.63,4.8,5.19,3.39,11.76,9.62C351.06,189.77,350.89,193.94,356.92,199.2Z"/></svg>